<?xml version="1.0" standalone="no"?>
<!DOCTYPE svg PUBLIC "-//W3C//DTD SVG 1.1//EN" "http://www.w3.org/Graphics/SVG/1.1/DTD/svg11.dtd" >
<svg xmlns="http://www.w3.org/2000/svg">
<metadata>
Created by FontForge 20120731 at Tue Aug 16 17:45:14 2016
 By admin
</metadata>
<defs>
<font id="iconfont" horiz-adv-x="1024" >
  <font-face 
    font-family="iconfont"
    font-weight="500"
    font-stretch="normal"
    units-per-em="1024"
    panose-1="2 0 6 3 0 0 0 0 0 0"
    ascent="896"
    descent="-128"
    x-height="792"
    bbox="-0.373494 -218 1570 896.754"
    underline-thickness="50"
    underline-position="-100"
    unicode-range="U+0078-E651"
  />
<missing-glyph horiz-adv-x="374" 
d="M34 0v682h272v-682h-272zM68 34h204v614h-204v-614z" />
    <glyph glyph-name=".notdef" horiz-adv-x="374" 
d="M34 0v682h272v-682h-272zM68 34h204v614h-204v-614z" />
    <glyph glyph-name=".null" horiz-adv-x="0" 
 />
    <glyph glyph-name="nonmarkingreturn" horiz-adv-x="341" 
 />
    <glyph glyph-name="x" unicode="x" horiz-adv-x="1001" 
d="M281 543q-27 -1 -53 -1h-83q-18 0 -36.5 -6t-32.5 -18.5t-23 -32t-9 -45.5v-76h912v41q0 16 -0.5 30t-0.5 18q0 13 -5 29t-17 29.5t-31.5 22.5t-49.5 9h-133v-97h-438v97zM955 310v-52q0 -23 0.5 -52t0.5 -58t-10.5 -47.5t-26 -30t-33 -16t-31.5 -4.5q-14 -1 -29.5 -0.5
t-29.5 0.5h-32l-45 128h-439l-44 -128h-29h-34q-20 0 -45 1q-25 0 -41 9.5t-25.5 23t-13.5 29.5t-4 30v167h911zM163 247q-12 0 -21 -8.5t-9 -21.5t9 -21.5t21 -8.5q13 0 22 8.5t9 21.5t-9 21.5t-22 8.5zM316 123q-8 -26 -14 -48q-5 -19 -10.5 -37t-7.5 -25t-3 -15t1 -14.5
t9.5 -10.5t21.5 -4h37h67h81h80h64h36q23 0 34 12t2 38q-5 13 -9.5 30.5t-9.5 34.5q-5 19 -11 39h-368zM336 498v228q0 11 2.5 23t10 21.5t20.5 15.5t34 6h188q31 0 51.5 -14.5t20.5 -52.5v-227h-327z" />
    <glyph glyph-name="uniE600" unicode="&#xe600;" 
d="M894 -7l-239 242q73 77 73 205t-86.5 217t-212.5 89t-215 -90t-89 -216q0 -127 88 -213.5t214 -86.5q115 0 188 57l241 -244q7 -6 16 -6t20 11q7 7 8 17.5t-6 17.5zM173 443.5q0 105.5 74 180t178.5 74.5t178.5 -74.5t74 -180t-74 -180t-178.5 -74.5t-178.5 74.5t-74 180
z" />
    <glyph glyph-name="uniE601" unicode="&#xe601;" 
d="M92 613zM32 613q0 25 17.5 42.5t42.5 17.5t43 -17.5t18 -42.5t-18 -43t-43 -18t-42.5 18t-17.5 43zM85 312zM24 312q0 25 18 43t43 18t42.5 -18t17.5 -43t-17.5 -43t-42.5 -18t-43 18t-18 43zM85 10zM24 10q0 25 18 42.5t43 17.5t42.5 -17.5t17.5 -42.5t-17.5 -43
t-42.5 -18t-43 18t-18 43zM995 615q0 -24 -15.5 -40.5t-37.5 -16.5h-629q-23 0 -38.5 17t-15.5 40q0 24 15.5 41t38.5 17h629q22 0 37.5 -17t15.5 -41zM995 315q0 -24 -15.5 -41t-37.5 -17h-629q-23 0 -38.5 17t-15.5 41t15.5 41t38.5 17h629q22 0 37.5 -17t15.5 -41z
M995 13q0 -24 -15.5 -41t-37.5 -17h-629q-23 0 -38.5 17t-15.5 41t15.5 40.5t38.5 16.5h629q22 0 37.5 -16.5t15.5 -40.5z" />
    <glyph glyph-name="uniE602" unicode="&#xe602;" 
d="M512 62l-448 446l31 30l417 -416l417 416l31 -30z" />
    <glyph glyph-name="uniE603" unicode="&#xe603;" 
d="M527 -131q-92 0 -174.5 35.5t-142.5 95.5t-95.5 143t-35.5 174t35.5 174t95.5 142.5t142.5 95t174 35.5t174 -35.5t142.5 -95t95.5 -142.5t35.5 -174t-35.5 -174t-95.5 -143t-142.5 -95.5t-173.5 -35.5zM527 723q-111 0 -204.5 -54.5t-148 -148t-54.5 -204t54.5 -204
t148 -148t204 -54.5t204 54.5t148 148t54.5 204t-54.5 204t-148 148t-203.5 54.5zM548 90q-4 -4 -8 -6.5t-6.5 -4t-5.5 -1.5h-6q-1 0 -4 2.5t-4 3t-4 3.5l-3 3l-180 180q-14 14 -11 27t16 14.5t26 -9.5l149 -156v386q0 21 10.5 28.5t20.5 -1t10 -27.5v-386l150 156
q11 12 26 10.5t17.5 -13t-13.5 -29.5z" />
    <glyph glyph-name="uniE604" unicode="&#xe604;" 
d="M472 664h44v-757h-44v757z" />
    <glyph glyph-name="uniE605" unicode="&#xe605;" 
d="M109 736h806v-134h-806v134zM915 132h-202v-268h-402v268h-202l403 403z" />
    <glyph glyph-name="uniE606" unicode="&#xe606;" 
d="M880 140l-230 -2q-5 25 -7 46q-5 69 2 106l1 9l-1 4h151q14 0 23 9.5t9 22.5t-9 22.5t-23 9.5h-14v1l1 2q0 132 -89.5 228.5t-219.5 108.5q2 6 2 11q0 14 -9.5 23.5t-23.5 9.5t-23.5 -9.5t-9.5 -23.5q0 -5 2 -11q-130 -12 -219 -108.5t-89 -228.5v-2v-1h-14
q-13 0 -22.5 -9.5t-9.5 -22.5t9.5 -22.5t22.5 -9.5h66v-10q5 -69 52 -151.5t129 -158.5t177 -115l5 -2h361q36 0 61 25t25 61v102q0 36 -25 61t-61 25zM168 370q0 114 80.5 195t194.5 81t195 -81t81 -195l-1 -2v-1h-550v1v2zM530 303q-35 -42 -61 -124q-106 65 -141 121
q0 1 -1 1.5t-1 1.5h204zM902 -48q0 -9 -6.5 -15.5t-15.5 -6.5h-348q-118 50 -208.5 158.5t-102.5 199.5q13 0 30 -6t23 -16q15 -24 41 -50t50 -44t51.5 -35.5t39 -24t17.5 -10.5l36 -19l10 39q25 94 59 137q-2 -49 1 -81q1 -10 6 -36.5t9 -47.5l4 -21l282 3q9 0 15.5 -6.5
t6.5 -15.5v-102z" />
    <glyph glyph-name="uniE607" unicode="&#xe607;" 
d="M882 -212q-16 0 -29 9v-3l-341 136l-341 -136v3q-13 -9 -29 -9q-23 0 -40 16.5t-17 40.5v796q0 71 50.5 121t120.5 50h512q70 0 120.5 -50t50.5 -121v-796q0 -24 -17 -40.5t-40 -16.5z" />
    <glyph glyph-name="uniE608" unicode="&#xe608;" 
d="M957 726v-522q0 -47 -22 -93.5t-58 -90t-82.5 -82.5t-94.5 -70q-48 -30 -92.5 -50.5t-78.5 -27.5l-11 -2l-10 2q-34 7 -80 27.5t-95 50.5q-50 31 -97 70q-48 39 -85.5 82.5t-60.5 89.5q-23 47 -23 94v522l36 5l410 81l418 -81zM513 736l-5 1l-351 -63v-329h356v391z
M867 345h-354v-468q34 8 74 25q41 17 80 40t75 52q36 28 64 61q28 32 45 67q16 35 16 72v151z" />
    <glyph glyph-name="uniE609" unicode="&#xe609;" horiz-adv-x="1053" 
d="M998 -52l-197 197l26 26l-26 26l-79 -78l-131 131l157 158q32 -11 66 -11q81 0 138 57q42 42 53.5 101t-12.5 114l-11 25l-85 -85h-68l1 65l86 86l-25 11q-37 16 -77 16q-81 0 -138 -57q-41 -41 -53 -96t7 -108l-158 -158l-223 224l26 26l-144 144l-79 -78l144 -145
l27 26l223 -223l-158 -158q-32 12 -66 12q-80 0 -137 -58q-43 -42 -54 -101t13 -114l10 -25l87 86l65 1l-1 -68l-85 -85l25 -11q37 -16 78 -16q80 0 137 57q41 41 53 96t-7 108l158 158l132 -132l-79 -78l26 -27l26 27l197 -198q28 -27 66.5 -27t65.5 27.5t27 66t-27 65.5z
" />
    <glyph glyph-name="uniE60A" unicode="&#xe60a;" 
d="M853 -65h-682q-47 0 -80.5 33t-33.5 80v683q0 47 33.5 80.5t80.5 33.5h170q47 0 80.5 -33.5t33.5 -80.5h398q47 0 80.5 -33.5t33.5 -80.5v-569q0 -47 -33.5 -80t-80.5 -33zM910 617q0 23 -16 40t-41 17h-455v57q0 22 -16 39.5t-41 17.5h-170q-23 0 -40 -16t-17 -41v-171
h796v57zM910 503h-796v-455q0 -22 16 -39.5t41 -17.5h682q23 0 40 16.5t17 40.5v455z" />
    <glyph glyph-name="uniE60B" unicode="&#xe60b;" 
d="M652 270q-92 0 -173 35l-178 -107q15 156 21 240q-43 68 -43 145q0 85 50 157t135.5 114t187 42t187 -42t135.5 -114t50 -157t-50 -157.5t-135.5 -114t-186.5 -41.5zM631 812q-111 0 -190 -65.5t-79 -158.5q0 -56 31 -104l-15 -173q74 46 128 77q58 -25 125 -25
q58 0 108 12t92 37.5t65.5 70.5t23.5 105q0 57 -24 101t-65 70.5t-92 39.5t-108 13zM188 570h-95v-558h326v217q45 -26 93 -43v-221q0 -38 -27.5 -65.5t-65.5 -27.5h-326q-38 0 -65.5 27.5t-27.5 65.5v652q0 38 27.5 65.5t65.5 27.5h113q-15 -26 -20 -66.5t2 -73.5zM326 -81
h93v46h-93v-46zM233 -81h46v46h-46v-46zM93 -81h93v46h-93v-46z" />
    <glyph glyph-name="uniE60C" unicode="&#xe60c;" 
d="M581 328q14 0 24.5 10t10.5 24.5t-10.5 24.5t-24.5 10t-24 -10t-10 -24.5t10 -24.5t24 -10zM697 328q14 0 24 10t10 24.5t-10 24.5t-24 10t-24 -10t-10 -24.5t10 -24.5t24 -10zM253 275h48v-49q0 -8 6 -13.5t14 -5.5h19q8 0 13.5 5.5t5.5 13.5v49h49q8 0 13.5 5.5
t5.5 13.5v19q0 8 -5.5 14t-13.5 6h-49v48q0 8 -5.5 13.5t-13.5 5.5h-19q-8 0 -14 -5.5t-6 -13.5v-48h-48q-8 0 -13.5 -6t-5.5 -14v-19q0 -8 5.5 -13.5t13.5 -5.5zM880 545h-734q-32 0 -54.5 -22.5t-22.5 -54.5v-329q0 -32 22.5 -54.5t54.5 -22.5h734q32 0 54.5 22.5
t22.5 54.5v329q0 32 -22.5 54.5t-54.5 22.5zM127 399q0 10 9.5 10t9.5 -10v-154q0 -10 -9.5 -10t-9.5 10v154zM135.5 198q-5.5 0 -9.5 4t-4 9.5t4 9.5t9.5 4t9.5 -4t4 -9.5t-4 -9.5t-9.5 -4zM803 101h-618v405h618v-405zM881 270q-14 0 -23.5 10t-9.5 23.5t9.5 23.5t23.5 10
t23.5 -10t9.5 -23.5t-9.5 -23.5t-23.5 -10zM542.5 212q14.5 0 24.5 10t10 24.5t-10 24.5t-24.5 10t-24.5 -10t-10 -24.5t10 -24.5t24.5 -10zM658.5 212q14.5 0 24.5 10t10 24.5t-10 24.5t-24.5 10t-24.5 -10t-10 -24.5t10 -24.5t24.5 -10z" />
    <glyph glyph-name="uniE60D" unicode="&#xe60d;" 
d="M515 72l-244 339h133v276h221v-276h134zM903 161h-85v-162h-611v162h-86v-248h782v248z" />
    <glyph glyph-name="uniE60E" unicode="&#xe60e;" 
d="M331 13q-11 -1 -38 0.5t-43 0.5q-65 -5 -114 0q-8 1 -14 0.5t-12 0t-10 2.5q-14 6 -17 54q-2 30 -9.5 95t-8.5 96q-1 37 1 103t2 92q0 52 15 109q4 16 25 69q12 8 15 20q73 45 156 55q5 1 14 3t14 3q78 12 207 12h212q82 3 157 -7q44 -25 57 -63q3 -9 5 -20.5t3.5 -28
t2.5 -22.5q3 -21 4.5 -42.5t2.5 -49.5t1 -43v-50v-44q0 -31 -4 -73q-1 -14 -3.5 -63t-8 -82.5t-17.5 -60.5q-9 -4 -12 -15q-36 -18 -114.5 -32.5t-101.5 -21.5q-15 -4 -18.5 -5t-18 -5t-20.5 -5t-19 -3.5t-22 -2.5h-22q-12 0 -23 1q-3 0 -12 2.5t-13 1.5q-2 0 -4 -1l-2 -2
q-2 -1 -3 -2t-2.5 -3.5t-2.5 -3.5t-2.5 -4t-2.5 -4q-3 -5 -10 -12t-8 -10q-2 -3 -6 -11.5t-6.5 -12.5t-8 -11.5t-7.5 -10.5q-1 -1 -5 -7.5t-6.5 -10t-7 -8.5t-9 -7t-9.5 -2q-6 1 -10.5 6t-10.5 7q-16 23 -42 69.5t-34 59.5zM918 309q2 11 1 59.5t-1 60.5q1 130 -13 199
q-8 42 -24 53q-5 3 -12.5 4.5t-13.5 2t-16.5 1.5t-15.5 1q-64 7 -97 3q-36 -6 -125.5 -2t-120.5 2q-3 0 -8.5 -2t-8.5 -2q-19 -2 -59 -3.5t-60 -3.5q-94 -9 -146 -29q-24 -10 -33 -17q-29 -20 -47 -103q-2 -6 -5 -16.5t-5 -19t-1 -17.5v-66q-9 -128 5 -249q1 -9 3.5 -36
t5 -45.5t8.5 -35.5q32 -9 100 -4t96 -3t42 -21q13 -12 28.5 -50.5t32.5 -49.5q10 11 34.5 52t45.5 56q33 0 43 4q22 -7 53 -3.5t49.5 9t48 14t49.5 12.5q13 3 44 6.5t52 8.5t39 15q11 28 17.5 69.5t8.5 63.5t6 82zM642 258q-2 -8 -3 -26t-4 -31.5t-11 -19.5
q-30 -14 -108 -23q-9 -1 -37.5 -5.5t-43.5 -4.5q-12 -1 -35 -1.5t-34 -1.5q-14 -1 -39 -7.5t-31 -7.5q-27 -5 -39 -1q-24 7 -26 60q-1 17 0 35t3 42t2 35q7 126 15 179l7 6q4 5 6 8q-1 6 -1 7.5t2 5.5t3 7q2 6 5.5 9.5t7 4.5t13.5 2.5t15 2.5l15 3q9 1 15 2l10 3
q26 -1 76.5 1t93.5 2t72 -7q13 -3 22.5 -11.5t14.5 -17.5t8 -26.5t4 -27.5t2 -32q14 12 58 47.5t66 55.5q3 2 10 6t9 6q2 1 6.5 6.5t9 7.5t11.5 1q23 -14 31.5 -43.5t10.5 -75.5q1 -10 0.5 -27t-0.5 -24q2 -25 -2 -154q-1 -7 0.5 -22t0.5 -23.5t-7 -13.5q-9 -3 -18 -3
t-15.5 1t-17 5t-14.5 6t-16 9q-78 39 -123 71zM442 508q-22 -14 -41 -35t-41 -50t-34 -42q0 -4 -4.5 -10t-3.5 -12q4 2 11.5 13t18.5 10q13 19 43.5 55t44.5 57q2 1 5 3t5 4t1 6l-1 1q-2 1 -4 0zM465 506q-5 -5 -11 -13t-13 -18t-10 -14q-2 -2 -7.5 -7t-7.5 -7q-3 -4 -6 -11
t-5 -10q-5 -6 -14 -15.5t-15 -17t-9 -15.5q4 1 14 0q6 7 15.5 21t18.5 24.5t19 17.5v7q39 38 51 59q-13 5 -20 -1zM486 486q-17 -18 -44 -54.5t-35 -45.5q2 -3 0 -16q-15 -18 -40 -56t-38 -55q-2 -6 -13 -24t-11 -34q-5 -6 -5 -14q-5 -1 -9 -7t-8 -7h-11q-4 -7 7 -8
q9 -1 14 3q10 16 56 85.5t69 108.5q0 1 -1 3t-1.5 3.5t0.5 5.5q4 5 14.5 20t18.5 25t18 18q4 9 11 17.5t16 19.5t13 16q10 13 9 18q-4 0 -9 -3t-7 -5l-8 -8zM399 504q-6 -7 -20.5 -24.5t-25.5 -30t-22 -23.5q-4 -10 -24 -32.5t-22 -38.5q14 23 45 50q25 40 52 64
q3 9 14.5 19t13.5 18q-3 0 -6 -1t-5 -1zM512 479q-23 -37 -44 -58q0 -4 -7 -13t-4 -17q9 12 41.5 52t49.5 63q-12 0 -21.5 -12.5t-14.5 -14.5zM308 421q4 2 10.5 11.5t14.5 11.5q5 12 22.5 31t21.5 29h-11q-5 -8 -27 -36.5t-31 -46.5zM330 502q-5 -10 -17 -23t-19.5 -26.5
t-8.5 -30.5q30 28 59 81q-3 1 -7 -0.5t-7 -0.5zM563 502q-4 -6 -36 -46.5t-45 -65.5q-3 1 -4.5 -1t-2.5 -2v-11q-17 -21 -35.5 -48.5t-31 -47t-33.5 -53t-31 -49.5q5 -2 15 -1q4 14 17.5 34t17.5 28q11 12 29.5 43.5t32.5 44.5q1 9 11.5 22t10.5 25q11 17 46.5 59.5
t51.5 69.5q-7 1 -13 -1zM799 500q0 -2 -4 -3l-1 -1q-14 -23 -50 -76t-52 -83q-3 -3 -8 -11.5t-7.5 -13t-5 -12.5t-1.5 -15q3 2 5.5 5t4 5.5t4 7t3.5 6.5q38 64 104 155q1 2 4 5.5t4.5 5.5t3.5 5.5t3 6t1 5t-1 5t-4 3.5h-3zM291 495q1 -2 0.5 -6t0 -6.5t2.5 -3.5q1 2 4 4.5
t5 5.5t2 7q-13 -1 -14 -1zM538 409q2 2 7 6.5t7 6.5q7 9 18 27.5t15 23.5q2 2 4.5 5t3.5 4.5t2 4t-0.5 4.5t-5.5 4q-1 -2 -4.5 -5t-4.5 -4q-28 -36 -62 -88q-2 -3 -4 -8t-3 -7q-7 -12 -24 -30.5t-20 -23.5q-5 -6 -12 -20.5t-9 -18.5q-7 -12 -21.5 -33t-25 -39.5t-17.5 -36.5
h16q14 30 32.5 59.5t45 67t38.5 54.5q2 0 0.5 4t-0.5 5q8 11 24 38zM658 323q6 2 9.5 7t8.5 14.5t6 10.5q1 2 5.5 5.5t5.5 5.5q1 1 1.5 4.5t1.5 4.5q2 5 8.5 13t9.5 11q4 7 13 21.5t16 24.5t15 19q0 3 -3 3q-47 -46 -97 -144zM704 301q15 18 58 80q3 4 10 16.5t12 18.5
q1 0 3 0.5t3 1.5q1 3 3 8.5t3 7.5q2 2 6 6.5t5.5 6.5t3.5 7.5t-1 10.5q-64 -75 -106 -164zM599 448v11q-1 0 -2 0.5t-2 0.5q-8 -8 -19.5 -26.5t-17.5 -26.5q-2 -7 -10.5 -19t-9.5 -21q13 12 31.5 40.5t29.5 40.5zM572 385q-2 -9 -9.5 -21.5t-8.5 -15.5q1 1 7 6.5t12 5.5
q2 7 14.5 28t13.5 34q-9 -3 -16.5 -18.5t-12.5 -18.5zM734 310q0 -1 -5 -5t-3 -8q5 2 9 6t8.5 12.5t6 11t6.5 7.5l6 6q1 1 1.5 4.5t1.5 5.5q2 3 9 11t10 11q3 5 8.5 14t8.5 12q1 2 4.5 5t4.5 4.5t2.5 5.5t-0.5 8q-1 0 -2 0.5t-3 0.5q-5 -8 -33.5 -47t-39.5 -65zM297 405
q1 1 3.5 4t4 5.5t0.5 3.5q-10 -10 -8 -13zM690 407q1 2 3 4t3 5q-3 -1 -5.5 -3.5t-0.5 -5.5zM654 352q6 7 12 15t13 20t10 16q0 4 -3 3q-2 -4 -11 -16t-14 -20.5t-7 -17.5zM750 292q-6 -4 -9 -7q1 -2 -0.5 -6t-2 -6t2.5 -4q3 1 4 6t2 6q3 -1 5.5 2t3.5 3q9 18 30 45.5
t26 34.5q-1 3 0.5 8t0.5 9q-1 0 -2 1t-2 1q-7 -11 -20.5 -28.5t-23.5 -33t-15 -31.5zM449 381q-89 -130 -131 -207q8 3 15.5 17.5t14.5 17.5q-1 4 1 7t2 6q37 45 67 101q3 1 6 4l4 4q2 8 14 22.5t11 25.5q-1 0 -2 1t-2 1zM341 343q-1 0 -4 2t-7 2q-12 -17 -31 -51t-27 -46
q0 -1 -1 -23q8 0 11 15q14 17 37.5 57t38.5 57q0 4 3 9t4 9q-7 -3 -12.5 -15.5t-11.5 -15.5zM589 341q-9 -9 -18 -23t-19.5 -32t-15.5 -25q-4 -6 -6 -13.5t-4 -19.5t-3 -16q3 4 8 10.5t6 8.5q7 10 22.5 41.5t23.5 43.5q1 2 8.5 11.5t9 13.5t2 12.5t-4.5 17.5q-11 -15 -9 -30
zM530 359q-32 -37 -52 -67q-1 -2 -25 -39q-3 -4 -6 -13t-5 -13q-1 -2 -5 -7.5t-5.5 -9t-4 -8.5t-3.5 -10t0 -9q4 1 6.5 4t3.5 8t2 6q7 13 23 35t19 26q4 6 11.5 19.5t11.5 19.5q3 4 9.5 13.5t10 14.5t8 13.5t7.5 16.5h-6zM312 259q10 7 21 33q27 29 43 63
q-13 -12 -23.5 -27.5t-22 -37t-18.5 -31.5zM311 341q0 1 2.5 4t2.5 4t-1 3q-6 -9 -4 -11zM643 337q6 1 9 11q-9 -1 -9 -11zM776 278q9 6 19 23t17 23q-1 2 -0.5 6.5t0 7.5t-2.5 3q-2 -3 -18 -26t-15 -37zM290 333q-22 -29 -15 -48l13 21q14 20 20 31q-3 0 -8 -2.5t-10 -1.5z
M540 333q-59 -80 -87 -146q3 -1 5.5 0.5t4.5 1.5q10 30 40 76t40 67q-1 2 -3 1zM588 292q-5 -6 -12.5 -20t-12.5 -19q0 -6 -7.5 -19.5t-3.5 -21.5q5 6 11.5 20t10.5 21q3 4 10 12.5t10 12.5t6 14.5t-2 17.5q-9 -11 -10 -18zM788 265q-13 -22 -8 -30q8 5 17 20.5t15 19.5
q0 4 1 11t0 12q-1 2 -3 2q-1 -3 -22 -35zM541 296zM530 281q7 -1 6 5q-3 1 -5 -3q0 -2 -1 -2zM525 270q2 -1 3 1.5t1 4.5v2q0 -1 -2.5 -3t-1.5 -5zM512 247q1 2 4 5t4.5 6t1.5 7q-5 -1 -8 -7.5t-2 -10.5zM596 258q-23 -30 -24 -55q16 2 23 20t1 35zM307 244q0 2 1 5l3 5
q-4 1 -5 -4t1 -6zM740 240q1 -4 11 -8q0 2 2.5 6t3.5 6t-1 6q-8 -13 -16 -10zM734 242q-1 6 -4 6q1 -6 4 -6zM802 207q15 25 7 39q-1 -2 -5 -9t-5.5 -11t-1 -9.5t4.5 -9.5zM487 191q0 2 0.5 5t1 5t-1.5 3q-10 -13 0 -13z" />
    <glyph glyph-name="uniE60F" unicode="&#xe60f;" 
d="M987 279q-11 15 -10.5 22.5t11.5 20.5q34 41 35.5 90t-28.5 87.5t-82 51.5q-21 6 -28 14t0 24q1 39 -16.5 72.5t-46 52.5t-65 25.5t-74.5 -8.5q-18 -7 -27 -4.5t-19 17.5q-30 44 -77.5 60t-95 0t-77.5 -60q-10 -15 -19.5 -17.5t-26.5 4.5q-39 15 -76 8t-66 -26
t-45.5 -52.5t-13.5 -72.5q1 -18 -5 -25t-25 -12q-51 -13 -81 -52.5t-28.5 -88t35.5 -88.5q11 -14 10.5 -22t-11.5 -22q-34 -42 -35 -91t30 -87.5t85 -52.5q16 -4 21 -9.5t4 -21.5q-2 -41 14 -75.5t45 -54t67 -25.5t80 10q15 6 22.5 3.5t16.5 -15.5q31 -46 79 -63t96 0t79 64
q9 13 17 15t23 -4q40 -17 78.5 -10t67.5 26.5t45.5 54.5t12.5 76q-1 15 3.5 20t19.5 9q55 13 87 52t31 88.5t-37 91.5zM215 94l-59 169q-8 22 16 31q13 1 23 -4l146 -92h1l-39 112q-8 22 16 31q23 6 32 -15l58 -169q6 -21 -16 -29q-13 -4 -23 2l-145 91l-1 -1l38 -111
q6 -21 -16 -28q-24 -8 -31 13zM437 167l-57 163q-8 24 15 33l80 26q21 6 30 -12q5 -22 -15 -28l-57 -19l15 -42l53 17q22 4 31 -13q4 -21 -17 -29l-53 -17l16 -45l59 19q22 6 30 -12q4 -22 -16 -29l-83 -26q-23 -7 -31 14zM616 223l-98 149q-4 4 -5 10q-5 18 16 27
q20 6 34 -13l70 -117l1 1l-4 143q1 18 19 25q18 5 32 -9l86 -116h1l-15 134q-5 22 17 30q21 4 30 -12q1 -6 2 -11l16 -175q-2 -24 -24 -31q-25 -8 -40 9l-77 102l2 -126q-2 -23 -25 -30q-26 -9 -38 10zM616 223z" />
    <glyph glyph-name="uniE610" unicode="&#xe610;" 
d="M160 704h704q13 0 22.5 -9.5t9.5 -22.5v-448q0 -13 -9.5 -22.5t-22.5 -9.5h-704q-13 0 -22.5 9.5t-9.5 22.5v448q0 13 9.5 22.5t22.5 9.5zM64 224q0 -40 28 -68t68 -28h704q40 0 68 28t28 68v448q0 40 -28 68t-68 28h-704q-40 0 -68 -28t-28 -68v-448zM736 0
q13 0 22.5 9.5t9.5 22.5t-9.5 22.5t-22.5 9.5h-448q-13 0 -22.5 -9.5t-9.5 -22.5t9.5 -22.5t22.5 -9.5h448zM448 32v128q0 13 -9.5 22.5t-22.5 9.5t-22.5 -9.5t-9.5 -22.5v-128q0 -13 9.5 -22.5t22.5 -9.5t22.5 9.5t9.5 22.5zM640 32v128q0 13 -9.5 22.5t-22.5 9.5
t-22.5 -9.5t-9.5 -22.5v-128q0 -13 9.5 -22.5t22.5 -9.5t22.5 9.5t9.5 22.5zM96 256h832q13 0 22.5 9.5t9.5 22.5t-9.5 22.5t-22.5 9.5h-832q-13 0 -22.5 -9.5t-9.5 -22.5t9.5 -22.5t22.5 -9.5z" />
    <glyph glyph-name="uniE611" unicode="&#xe611;" 
d="M890 762h-756q-29 0 -49 -20t-20 -49v-619q0 -28 20 -48t49 -20h756q29 0 49 20t20 48v619q0 29 -20 49t-49 20zM890 74h-756v619h756v-619zM359 183q19 -11 38 -1l302 168q20 11 20 34t-20 34l-302 168q-19 10 -38 -1t-19 -33v-336q0 -22 19 -33zM409 486l206 -102
l-206 -101v203z" />
    <glyph glyph-name="uniE612" unicode="&#xe612;" 
d="M292 241q-1 -220 0 -224q23 -89 93 -122q46 -22 130 -22q19 0 142 1q75 1 92 1q57 0 85 13q29 9 48.5 31.5t24.5 51.5q2 17 -9 41q42 36 48 71q2 20 -15 51h-1v1q38 37 44 77q4 30 -16 68q47 40 54 86q8 61 -32 110t-106 57q-2 0 -54 1q-103 0 -148 1q2 3 5 11
q43 91 45 113q8 115 -44 178q-29 34 -75 49h-1q-24 9 -61 9q-10 0 -29 -2h-1q-45 -3 -60 -47q-8 -21 -9 -72q-2 -43 -7 -54q-12 -26 -53 -80q-26 -36 -40 -56.5t-30 -55.5t-19 -67q-1 -6 -1 -220zM11 412v-438q0 -21 16 -36t39 -15h99q23 0 39.5 15t16.5 36l-1 438
q0 21 -16 36t-39 15h-99q-23 0 -39 -15t-16 -36z" />
    <glyph glyph-name="uniE613" unicode="&#xe613;" 
d="M881 670l-88 -58q-15 -10 -14.5 -23t16.5 -22l13 -7l-154 -219q-16 6 -33 6q-41 0 -66 -33l-106 58q2 9 2 18q0 35 -25 60t-60.5 25t-60.5 -25t-25 -60q0 -28 17 -50l-75 -83q-14 5 -27 5q-35 0 -60 -25t-25 -60t25 -60t60 -25t60 25t25 60q0 32 -22 56l72 80
q17 -8 36 -8q38 0 64 29l107 -59q-1 -8 -1 -13q0 -35 25 -60t60.5 -25t60.5 25t25 60q0 29 -19 53l157 223l23 -13q16 -9 27.5 -3t12.5 24l6 106q1 17 -8.5 22.5t-24.5 -4.5zM195 134q-18 0 -30.5 12.5t-12.5 30t12.5 30t30.5 12.5t30.5 -12.5t12.5 -30t-12.5 -30
t-30.5 -12.5zM365.5 347q-17.5 0 -30 12.5t-12.5 30.5t12.5 30.5t30 12.5t30 -12.5t12.5 -30.5t-12.5 -30.5t-30 -12.5zM621.5 219q-17.5 0 -30 12.5t-12.5 30.5t12.5 30.5t30 12.5t30 -12.5t12.5 -30.5t-12.5 -30.5t-30 -12.5z" />
    <glyph glyph-name="uniE614" unicode="&#xe614;" 
d="M286 695q26 -4 50 -19t42 -33t36.5 -35.5t43 -28.5t53.5 -11q28 1 54 15t46.5 32.5t41.5 37t47 29.5t54 7q41 -5 80 -49.5t65.5 -109t43 -142t17.5 -146.5t-16.5 -123.5t-54.5 -73.5q-30 -15 -68.5 -5.5t-71.5 39.5q-108 83 -241 94q-99 8 -191 -51l-63 -48
q-14 -13 -25 -20.5t-25 -14t-28.5 -6t-29.5 8.5q-43 21 -64 80.5t-18.5 133.5t21.5 155t49 146t70.5 104.5t81.5 33.5zM660 347q-19 0 -31.5 -13t-12.5 -31t12.5 -31t31 -13t31.5 13t13 31t-13 31t-31 13zM741 486q-18 0 -31 -13t-13 -31.5t13 -31t31 -12.5t31 12.5t13 31
t-13 31.5t-31 13zM326 425h-85v-67l85 1v-88h72v88h83v66h-83v86l-72 1v-87z" />
    <glyph glyph-name="uniE615" unicode="&#xe615;" 
d="M256 812v-1024l512 512z" />
    <glyph glyph-name="uniE616" unicode="&#xe616;" 
d="M269 255l448 -333q21 -10 32 0q9 5 14 12.5t5 13.5v666q0 10 -5 17.5t-14 7.5q-3 0 -6.5 3.5t-6.5 3.5q-13 0 -19 -7l-448 -333q-13 -12 -13 -25t13 -26z" />
    <glyph glyph-name="uniE617" unicode="&#xe617;" 
d="M537 412zM422 412.5q0 47.5 33.5 81t81 33.5t81 -33.5t33.5 -81t-33.5 -81t-81 -33.5t-81 33.5t-33.5 81z" />
    <glyph glyph-name="uniE618" unicode="&#xe618;" 
d="M512 628q-89 0 -165 -44t-119.5 -120t-43.5 -165t43.5 -164.5t119.5 -119.5t165 -44t165 44t119.5 119.5t43.5 164.5t-43.5 165t-119.5 120t-165 44zM512 14q-118 0 -201.5 83.5t-83.5 201.5t83.5 201.5t201.5 83.5t201.5 -83.5t83.5 -201.5t-83.5 -201.5t-201.5 -83.5z
M654 277h-142v143q0 4 -3 7t-8 3h-22q-4 0 -7.5 -3t-3.5 -7v-154v-22q0 -4 3.5 -7.5t7.5 -3.5h175q5 0 8 3.5t3 7.5v22q0 5 -3 8t-8 3z" />
    <glyph glyph-name="uniE619" unicode="&#xe619;" 
d="M510.5 118q-70.5 0 -141.5 21t-125 53.5t-96.5 69.5t-64.5 70.5t-22 54.5q0 15 22 46t65 69.5t96 73t124.5 58t142 23.5t141.5 -23t124.5 -57.5t96 -72.5t65 -69.5t22.5 -47.5q0 -21 -22.5 -54t-65 -70.5t-96 -70t-124.5 -53.5t-141.5 -21zM510.5 535
q-62.5 0 -106.5 -43.5t-44 -104t44 -104t106.5 -43.5t106 43.5t43.5 104t-43.5 104t-106 43.5zM510.5 295q-37.5 0 -64 26.5t-26.5 63.5t26.5 63.5t64 26.5t63.5 -26.5t26 -63.5t-26 -63.5t-63.5 -26.5z" />
    <glyph glyph-name="uniE61A" unicode="&#xe61a;" 
d="M934 64l-368 315q23 51 23 106q0 108 -77 185t-185 77q-39 0 -76 -12q-13 -3 -16 -16t6 -22l138 -138q9 -9 9 -21t-9 -21l-84 -84q-8 -8 -21 -8t-21 8l-138 138q-9 9 -22 6t-16 -16q-12 -37 -12 -76q0 -108 77 -185t185 -77q55 0 106 23l315 -368q22 -25 55 -25
q29 0 51 21l84 84q22 23 21 54t-25 52zM762 23q7 7 7 17t-7 17t-17 7t-17 -7l-39 -39l-23 27l60 58q7 7 7 17t-6 17q-7 7 -17 7t-17 -7l-58 -55l-26 30l33 33q7 7 7 17t-7 17t-17 7t-17 -7l-30 -31l-122 142q-12 14 -28 5q-47 -25 -101 -25q-89 0 -152 63t-63 152q0 11 1 22
l107 -107q22 -22 54 -22t54 22l84 84q22 22 22 54t-22 54l-107 107q11 1 22 1q89 0 152 -63t63 -152q0 -54 -25 -101q-9 -16 5 -28l381 -327q9 -8 9.5 -19t-7.5 -19l-84 -84q-8 -7 -19.5 -7t-18.5 9l-62 73z" />
    <glyph glyph-name="uniE61B" unicode="&#xe61b;" 
d="M688 408q-51 50 -122 50t-121.5 -50.5t-50.5 -121.5t50.5 -121.5t122 -50.5t121.5 50.5t50 121.5t-50 122zM270 675q30 0 51.5 -19t25.5 -47h-154q4 28 26 47t51 19zM435 681h278l64 -106h30q40 0 67.5 -28t27.5 -67v-405q0 -39 -27.5 -67t-67.5 -28h-616q-39 0 -67 28
t-28 67v405q0 39 28 67t67 28h188zM566 538q105 0 178.5 -74t73.5 -178.5t-73.5 -178t-178 -73.5t-178.5 73.5t-74 178t74 178.5t178 74zM534 409q14 -8 15 -21t-4.5 -24t-18.5 -34l-8 -12l-6 -12q-8 -15 -12 -21.5t-11.5 -16t-13 -12t-13 -3t-15.5 4.5q-24 14 -28 45.5
t14 63t47.5 44t53.5 -1.5z" />
    <glyph glyph-name="uniE61C" unicode="&#xe61c;" 
d="M888 278l-367 -368q-36 -36 -86 -49q22 27 36 59q18 10 29 22l191 191l-126 126l184 183q8 8 8 19t-8 19t-19 8t-19 -8l-184 -183l-36 36v79l131 131q55 55 133 55t133 -55t55 -132.5t-55 -132.5zM491 184v76l36 37l38 -38zM267 -149q-78 0 -133 55.5t-55 132.5v520
q0 78 55 133t133 55t133 -55t55 -133v-520q0 -77 -55 -132.5t-133 -55.5zM418 551q0 61 -45 104.5t-106.5 43.5t-107 -43.5t-45.5 -104.5v-270h72v-260q0 -11 8 -18.5t19 -7.5t19 7.5t8 18.5v260h178v270zM213 568q11 0 19 -8t8 -19v-260h-54v260q0 11 8 19t19 8z" />
    <glyph glyph-name="uniE61D" unicode="&#xe61d;" 
d="M311 465h-108v-296h108v296zM311 540q0 16 -10 26.5t-25 10.5h-38q-15 0 -25 -10.5t-10 -26.5v-38l108 1v37zM238 61h38q15 0 25 11t10 26v34h-108v-34q0 -15 10 -26t25 -11zM494 616q0 15 -10.5 26t-25.5 11h-75q-15 0 -24.5 -10.5t-9.5 -26.5v-39l145 -1v40zM494 540
h-145v-369l145 -1v370zM383 61h75q15 0 25.5 11t10.5 26v34h-145v-34q0 -15 9.5 -26t24.5 -11zM567 60h110q15 0 25.5 11t10.5 26v443q0 15 -10.5 26t-25.5 11h-110q-16 0 -26.5 -11t-10.5 -26v-443q0 -15 10.5 -26t26.5 -11zM822 430q0 15 -9.5 26t-24.5 11h-5
q-15 0 -24 -11.5t-9 -27.5v-72h72v74zM822 317l-72 -1v-108l72 1v108zM783 60h5q15 0 24.5 11t9.5 26v73l-72 -1v-73q0 -16 9 -26t24 -10zM1021 -14q3 32 -11 39l-151 149v-122q-1 -1 0.5 -8t-7.5 -15t-27 -8h-624q-2 0 -4 0.5t-8 3t-10.5 6.5t-8.5 12t-4 18v111l-153 -147
q-2 0 -3.5 -1t-4.5 -9.5t-3 -24.5q0 -43 12 -43h994q5 0 8.5 4t4.5 9.5t0.5 12t-0.5 9.5v4z" />
    <glyph glyph-name="uniE61E" unicode="&#xe61e;" 
d="M556 91l-147 30q4 26 5 48l100 69q24 -68 42 -147zM435 404l-49 -34q7 -19 12 -37l85 -17q-21 47 -46 84q0 1 -2 4zM510 251q-9 25 -20 49l-88 18q15 -61 13 -132zM256 484q-2 -7 -2 -14q0 -26 22 -38q-2 -8 -2 -15q0 -23 15.5 -39t37.5 -16q34 0 49 32q3 -8 5 -11l49 34
q-2 4 -2 5q-5 9 -8 20q9 -6 20 -6q18 0 30 12.5t12 30t-12 30t-29.5 12.5t-30.5 -12q4 47 32.5 86.5t76.5 63.5q45 21 91 18.5t85 -26.5q-39 55 -104 72.5t-127 -13.5q-72 -36 -96 -115q0 58 37 98q7 7 14 13q36 32 83 42t90 -4q-51 44 -119 43.5t-120 -45.5
q-60 -53 -64 -133q-25 38 -67 55t-87 6q-52 -12 -83.5 -56t-27.5 -97q12 35 39 60.5t64 33.5q45 11 86.5 -6t66.5 -54q-76 30 -149 -6q-61 -31 -87.5 -94.5t-7.5 -128.5q5 46 32 85.5t70 61.5q56 28 118 15zM626 -30l68 13q-2 12 -3 23l-46 32q-11 -32 -19 -68zM704 99
l-23 16v-2q-12 -18 -22 -39l40 8q2 9 5 17zM656 67q-4 -11 -9 -23l44 -30q-1 33 6 61zM609 272q45 14 80 -17q4 -3 6 -6q18 -19 18 -45q-11 36 -45 53q-29 14 -59 6t-48 -34q40 25 82 4q47 -23 50 -70q-6 6 -14 6t-13.5 -5.5t-5.5 -14t5.5 -14t13.5 -5.5q5 0 10 2
q-2 -5 -4 -9q0 -1 -1 -2l23 -16q0 1 1 3l1 2q7 -15 23 -15q10 0 17 7.5t7 18.5q0 3 -1 7q11 5 11 17q0 4 -2 7q29 6 56 -7q41 -21 47 -69q9 31 -3.5 60.5t-40.5 43.5q-34 17 -70 3q12 17 31.5 25t39.5 3q36 -9 48 -44q2 25 -12.5 45t-38.5 26q-21 5 -40.5 -3t-31.5 -25
q-2 37 -30 61q-23 21 -55 21.5t-55 -20.5zM715 -105q-15 44 -21 82l-70 -14q-2 -11 -4 -21l67 -46h-5h-7l-57 39q-3 -20 -5 -38h-25q-6 60 -17 119l-178 -122q-3 0 -26 -1l201 138q-4 24 -9 46l-152 30q-14 -100 -59 -215q-100 -6 -159.5 -16.5t-59.5 -22.5q0 -18 128 -31
t308.5 -13t308.5 13t128 31q0 14 -79.5 25.5t-207.5 16.5z" />
    <glyph glyph-name="uniE61F" unicode="&#xe61f;" 
d="M265 411v5q0 15 10.5 25.5t24.5 10.5h29q15 0 25.5 -10.5t10.5 -25.5v-5q0 -15 4.5 -19t19.5 -4h250q13 0 16.5 3.5t3.5 16.5v8q0 15 10.5 25.5t25.5 10.5h27q15 0 25.5 -10.5t10.5 -25.5v-7q0 -13 5 -17t19 -4h137q14 0 19 5t5 19v41q0 30 -21 51.5t-50 21.5h-720
q-29 0 -50 -21.5t-21 -51.5v-39q0 -15 5.5 -20.5t22.5 -5.5h130q16 0 21 4t5 19zM758 314v-8q0 -15 -10.5 -25.5t-25.5 -10.5h-27q-15 0 -25.5 10.5t-10.5 25.5v8q0 11 -4.5 15.5t-16.5 4.5h-248q-15 0 -20 -4.5t-5 -18.5v-5q0 -15 -10.5 -25.5t-25.5 -10.5h-29
q-14 0 -24.5 10.5t-10.5 25.5v3q0 16 -5 20.5t-20 4.5h-132q-16 0 -21.5 -5.5t-5.5 -22.5v-365q0 -30 21 -51.5t50 -21.5h720q29 0 50 21.5t21 51.5v371q0 12 -5 17t-17 5h-138q-15 0 -20 -4t-5 -16zM342 337q0 -15 -8 -25.5t-19 -10.5t-19 10.5t-8 25.5v44q0 15 8 25.5
t19 10.5t19 -10.5t8 -25.5v-44zM736 337q0 -15 -8 -25.5t-19 -10.5t-19 10.5t-8 25.5v44q0 15 8 25.5t19 10.5t19 -10.5t8 -25.5v-44zM362 564q17 47 58 76.5t92 29.5t92.5 -29.5t58.5 -76.5q1 -2 2.5 -5.5t10 -9.5t21 -6t19.5 5.5t8 10.5l1 5q-19 73 -78 119.5t-134.5 46.5
t-134.5 -46.5t-78 -119.5q0 -2 0.5 -5t7.5 -8t20 -5t21.5 4.5t10.5 8.5z" />
    <glyph glyph-name="uniE620" unicode="&#xe620;" 
d="M386 615q-60 -23 -109 -65.5t-81 -99.5h134q18 96 56 165zM502 450v188q-41 -2 -83 -13q-42 -71 -62 -175h145zM830 450q-64 116 -185 163q37 -68 56 -163h129zM611 625q-40 11 -82 13v-188h145q-20 103 -63 175zM644 -62q122 47 186 164h-130q-18 -96 -56 -164zM529 102
v-187q44 2 82 12q42 70 62 175h-144zM197 102q31 -57 80 -99.5t110 -65.5q-38 68 -57 165h-133zM420 -73q42 -11 82 -13v188h-145q21 -106 63 -175zM232 165v234h-29v-184l-123 184h-32v-234h30v184l123 -184h31zM454 371v28h-169v-234h174v27h-143v80h129v27h-129v72h138z
M543 165h32l49 178q3 11 7 27q1 -5 7 -27l50 -178h29l65 234h-32l-36 -151q-7 -28 -12 -50q-5 38 -18 82l-34 119h-37l-44 -158q-2 -6 -11 -43q-4 23 -10 47l-35 154h-32zM976 264.5q-10 14.5 -30 23.5q-14 6 -51.5 14.5t-46.5 17t-9 20.5q0 15 12.5 25t40.5 10q27 0 41 -11
t16 -33l30 2q-1 20 -11.5 36.5t-30.5 25t-46 8.5q-24 0 -43 -8t-29 -23.5t-10 -33.5q0 -16 8 -29t25 -22q13 -7 45 -14.5t42 -11.5q14 -5 20.5 -13.5t6.5 -19t-6.5 -20t-20 -14.5t-31.5 -5q-20 0 -36 7t-23.5 18t-9.5 29l-29 -3q0 -23 12.5 -42t34 -28t52.5 -9q26 0 46 9
t30.5 25.5t10.5 35.5t-10 33.5z" />
    <glyph glyph-name="uniE621" unicode="&#xe621;" 
d="M793 732h-565q-82 0 -140.5 -58.5t-58.5 -140.5v-466q0 -82 58.5 -140.5t140.5 -58.5h366l66 66h-415q-62 0 -106 44t-44 106v432q0 62 44 106t106 44h532q62 0 105.5 -44t43.5 -106v-316l67 67v266q0 82 -58.5 140.5t-141.5 58.5zM649 565l-118 -53q-21 -7 -23 -29h-1
v-207q-18 7 -39 7q-44 0 -75.5 -31t-31.5 -75.5t31.5 -76t76 -31.5t75.5 31.5t31 75.5q0 9 -1 17v266l94 42q13 4 19.5 16t2.5 25.5t-16 20t-25 2.5zM960 -101v185l-183 -183z" />
    <glyph glyph-name="uniE622" unicode="&#xe622;" 
d="M729 776q-58 0 -99 -49.5t-41 -119t41 -118.5t99 -49t99 49t41 118.5t-41 119t-99 49.5zM350.5 831q-11.5 0 -20 -8.5t-8.5 -19.5v-56v-28v-105q0 -29 -15.5 -52t-39.5 -33v274q0 11 -8.5 19.5t-20 8.5t-19.5 -8.5t-8 -19.5v-274q-25 10 -40.5 33t-15.5 52v105v28v56
q0 11 -8.5 19.5t-20 8.5t-19.5 -8.5t-8 -19.5v-56v-28v-112q0 -50 31.5 -88.5t80.5 -47.5v-506q0 -11 8 -19.5t19.5 -8.5t20 8.5t8.5 19.5v506q48 9 79.5 47.5t31.5 88.5v112v28v56q0 11 -8 19.5t-19.5 8.5zM925 608q0 93 -57.5 158.5t-138.5 65.5t-138.5 -65.5
t-57.5 -158.5q0 -84 48.5 -147t120.5 -75v-1l-1 -1v-420q0 -11 8.5 -19.5t20 -8.5t19.5 8.5t8 19.5v420v1v1q71 12 119.5 75t48.5 147z" />
    <glyph glyph-name="uniE623" unicode="&#xe623;" 
d="M882 -128l16 37h-861v861l-37 -16l60 142l60 -142l-38 16v-816h816l-16 38l142 -60zM157 14h149v179h-149v-179zM531 14v344h-150v-344h150zM635 14h150v493h-150v-493zM152 410l10 -44q88 20 183.5 60.5t204 111.5t187.5 158l56 -42l22 182l-169 -72l55 -41
q-76 -82 -179 -150t-194.5 -106t-175.5 -57z" />
    <glyph glyph-name="uniE624" unicode="&#xe624;" 
d="M511 688q80 0 136.5 -57t56.5 -137t-56 -136l-137 -137l-136 137q-57 57 -57 136.5t56.5 136.5t136.5 57zM511 740q-101 0 -173 -72t-72 -173.5t72 -173.5l173 -174l174 174q72 72 72 173.5t-72 173.5t-174 72v0zM511 740zM777 273l-39 -38q40 -25 40 -51
q0 -38 -78.5 -70.5t-188.5 -32.5t-188.5 32.5t-78.5 70.5q0 29 47 56l-34 40q-65 -41 -65 -96q0 -66 91.5 -110.5t228 -44.5t228 44.5t91.5 110.5q-1 50 -54 89zM777 273zM459 510q0 -22 15.5 -37.5t37 -15.5t37 15.5t15.5 37t-15.5 37t-37 15.5t-37 -15.5t-15.5 -36.5z
M459 510z" />
    <glyph glyph-name="uniE625" unicode="&#xe625;" 
d="M734.5 508q21.5 0 21.5 21.5t-22 21.5q-9 0 -15 -6t-6 -16q0 -21 21.5 -21zM815 427h-167q-21 0 -21 -21.5t21 -21.5h166q22 0 22 22q0 9 -6 15t-15 6zM256 717h644q22 0 22 21.5t-22 21.5h-644q-22 0 -22 -21.5t22 -21.5zM815 508q22 0 22 21.5t-22 21.5q-9 0 -15 -6
t-6 -16q0 -9 6.5 -15t14.5 -6zM815 260h-167q-21 0 -21 -21.5t21 -21.5h166q22 0 22 22q0 10 -6 15.5t-15 5.5zM815 341h-167q-21 0 -21 -21.5t21 -21.5h166q22 0 22 21q0 10 -5.5 16t-15.5 6zM315 802h542q9 0 15.5 5.5t6.5 15.5t-6 16t-15 6h-543q-21 0 -21 -22
q0 -9 7 -15t14 -6zM315 51h499q22 0 22 21.5t-22 21.5h-499q-21 0 -21 -21q0 -9 7 -15.5t14 -6.5zM922 674h-709q-17 0 -30 -12.5t-13 -30.5v-85h-85q-17 0 -30 -12.5t-13 -30.5v-231v-144v-85q0 -51 36 -87.5t88 -36.5h43h187h520q17 0 30 12.5t13 30.5v674q4 15 -8 26.5
t-29 11.5zM922 -34h-564h-145h-43q-35 0 -60 25t-25 60v457h85v-435q0 -10 6 -16t15 -6q22 0 22 22v435v21v107h709v-670zM315 132h499q22 0 22 22q0 9 -6 15t-16 6h-499q-21 0 -21 -21q1 -9 8 -15.5t13 -6.5zM315 508q22 0 22 21.5t-22 21.5q-9 0 -15 -6t-6 -16q1 -9 8 -15
t13 -6zM401.5 508q21.5 0 21.5 21q0 10 -7 16t-15 6q-21 0 -21 -21.5t21.5 -21.5zM482 508h167q22 0 22 21.5t-22 21.5h-167q-21 0 -21 -22q0 -9 7 -15t14 -6zM315 218h209q22 0 22 22v166q0 21 -22 21h-209q-21 0 -21 -21v-167q1 -9 8 -15t13 -6zM337 384h167v-124h-167
v124z" />
    <glyph glyph-name="uniE626" unicode="&#xe626;" 
d="M704 640v128q0 13 -9.5 22.5t-22.5 9.5t-22.5 -9.5t-9.5 -22.5v-320h-256v320q0 13 -9.5 22.5t-22.5 9.5t-22.5 -9.5t-9.5 -22.5v-128h-128q-13 0 -22.5 -9.5t-9.5 -22.5t9.5 -22.5t22.5 -9.5h128v-128h-128q-13 0 -22.5 -9.5t-9.5 -22.5t9.5 -22.5t22.5 -9.5h128v-128
h-128q-13 0 -22.5 -9.5t-9.5 -22.5t9.5 -22.5t22.5 -9.5h128v-128q0 -13 9.5 -22.5t22.5 -9.5t22.5 9.5t9.5 22.5v320h256v-320q0 -13 9.5 -22.5t22.5 -9.5t22.5 9.5t9.5 22.5v128h128q13 0 22.5 9.5t9.5 22.5t-9.5 22.5t-22.5 9.5h-128v128h128q13 0 22.5 9.5t9.5 22.5
t-9.5 22.5t-22.5 9.5h-128v128h128q13 0 22.5 9.5t9.5 22.5t-9.5 22.5t-22.5 9.5h-128zM192 800l-32 -32h704l-32 32v-768l32 32h-704l32 -32v768zM128 800v-768q0 -13 9.5 -22.5t22.5 -9.5h704q13 0 22.5 9.5t9.5 22.5v768q0 13 -9.5 22.5t-22.5 9.5h-704q-13 0 -22.5 -9.5
t-9.5 -22.5z" />
    <glyph glyph-name="uniE627" unicode="&#xe627;" 
d="M730 -37h-368q-72 0 -122 50t-50 122v418q0 77 40.5 124.5t106.5 47.5h393q66 0 106.5 -47.5t40.5 -124.5v-148q0 -4 -5 -14l-196 -246q-12 -16 -30 -7l-125 64q-9 3 -12 12.5t2 19.5q4 9 13.5 12t18.5 -3l91 -44q18 -9 30 8l162 201q5 10 5 15v130q0 50 -24.5 86.5
t-74.5 36.5h-393q-49 0 -73.5 -36.5t-24.5 -86.5v-418q0 -51 35.5 -86.5t87.5 -35.5h368q88 0 99 76q2 9 8.5 15.5t15.5 6.5q11 0 19 -8t6 -19q-9 -59 -47.5 -90t-102.5 -31zM730 -37zM533 381h-171q-12 0 -18.5 -7t-6.5 -18t6.5 -17.5t18.5 -6.5h171q12 0 18.5 6.5
t6.5 17.5t-6.5 18t-18.5 7zM632 479h-270q-12 0 -18.5 -6.5t-6.5 -17.5t6.5 -18t18.5 -7h270q11 0 17.5 7t6.5 18t-6.5 17.5t-17.5 6.5zM705 577h-343q-12 0 -18.5 -6.5t-6.5 -17.5t6.5 -18t18.5 -7h343q11 0 18 7t7 18t-7 17.5t-18 6.5zM705 577z" />
    <glyph glyph-name="uniE628" unicode="&#xe628;" 
d="M828 703q-37 38 -85 66q-137 83 -297 59q-145 -21 -248 -125q-103 -103 -125 -248q-24 -159 59 -297q29 -48 66 -85q63 -63 144 -96.5t170 -33.5q30 0 63 5h5q145 22 248 125t125 249q16 104 -17 205.5t-108 175.5zM901 351q-12 -1 -13 -1q-8 0 -14 -1q-6 0 -21 1
q-19 0 -40 3q-2 0 -7.5 0.5t-8.5 1.5q-22 3 -47 11q-8 3 -20 7q-19 7 -36 15l-6 3q-4 2 -7 3q-22 12 -44 28q-1 1 -3 2l-2 1q7 10 26 41q1 2 5 8t6 10q21 37 38 76q1 3 3.5 9t3.5 9q13 33 21 62q1 5 7 28l4 14q2 10 3 16q22 -16 40 -34q62 -62 91 -143.5t21 -169.5zM698 731
q-4 -26 -10 -50q-1 -3 -2 -9t-2 -10q-11 -38 -26 -75q-1 -4 -4 -9.5t-4 -7.5q-14 -32 -27 -55q-1 -1 -15 -24q-8 -12 -20 -29l-1 1q-15 15 -30 33q-1 3 -4 7t-4 5q-13 17 -17 25q-2 3 -5 8.5t-4 6.5q-10 18 -12 23q-1 2 -7.5 17.5t-9.5 23.5q-1 4 -5 18q-5 16 -6 24
q-1 4 -4 19q-3 16 -3 24q-1 7 -2 20v25q0 8 1 20q0 2 1 14q118 11 222 -45zM237 664q77 77 182 102v-4v-3q-1 -5 -1 -21q1 -19 1 -29q1 -8 2 -21q2 -16 4 -28q3 -12 5 -21q2 -12 7 -28q4 -13 6 -20q5 -12 11 -27q6 -14 8 -19q5 -10 14 -26t10 -17q6 -10 19 -28q1 -1 4.5 -6
t5.5 -7q16 -21 33 -38l6 -6q0 -1 -1 -2l-2 -2q-17 -20 -30 -33t-33 -30l-2 -1l-2 -2l-6 6q-16 16 -37 33q-2 2 -5 4t-4 3q-17 12 -33 23q-1 1 -4 2.5t-4 1.5q-18 11 -38 21l-5 2q-23 11 -46 18v0q-49 16 -99 21h-5h-5q-22 1 -30 1h-6h-5h-7h-5h-5q26 105 102 181zM125 425
q12 1 14 2h20h26q11 -1 17 -2q13 -1 29 -4q13 -2 14 -2q14 -3 31 -8q1 -1 5 -2t6 -2q14 -4 32 -12q2 -1 5 -2t5 -2q12 -6 31 -17q1 0 4 -1.5t4 -2.5q12 -8 29 -21q1 0 3.5 -2t4.5 -3q18 -14 34 -30v-1q-17 -12 -29 -19q-24 -15 -24 -16q-23 -13 -54 -27q-3 -1 -8.5 -4
t-8.5 -4q-37 -15 -76 -25q-3 -1 -10 -2.5t-10 -2.5q-24 -5 -49 -9q-56 103 -45 221zM512 -1q-78 0 -149 29.5t-126 84.5q-18 18 -34 39q6 1 16.5 4t13.5 3q21 5 28 7q30 9 62 21q3 1 9 3.5t10 3.5q38 17 76 38l9 6l9 6q31 19 40 25l2 -3l3 -3q5 -7 9 -14l12 -20q5 -9 8 -14
q4 -9 10 -21q0 -1 2 -6t4 -8q4 -10 9 -26q0 -2 1 -5.5t2 -5.5q5 -18 8 -37q1 -2 1.5 -6t0.5 -5q2 -17 3 -27v-5q0 -3 0.5 -6t0.5 -4v-24q0 -6 -1 -16q0 -3 -1 -12q-19 -2 -38 -2v0zM789 113q-77 -77 -182 -103v2v3v15q1 17 0 30q0 7 -1 16q-1 14 -3 28q-2 12 -3 16
q-2 15 -7 31q0 1 -1 5t-2 6q-6 21 -14 41q0 2 -1.5 5t-1.5 4q-8 17 -15 31q-2 3 -7 13q-8 14 -15 25q-5 8 -9 13q-1 1 -3.5 4.5t-3.5 5.5q1 1 2.5 2t1.5 2q22 19 36 33t33 36q1 1 2.5 2t1.5 2q1 0 2.5 -1t2.5 -2q4 -3 16 -11t16 -10q5 -3 17 -9.5t18 -9.5q3 -2 16 -7.5
t20 -8.5l15 -5q14 -5 22 -7q3 -1 15 -4q15 -3 24 -5q3 0 14 -2q15 -3 24 -3q1 -1 15 -1q16 -1 24 -2h2h3q1 0 2.5 0.5t2.5 0.5h23q-26 -105 -102 -181z" />
    <glyph glyph-name="uniE629" unicode="&#xe629;" 
d="M859 533h-66h-752h-8h-33v-298q0 -89 44 -165.5t120.5 -120.5t165.5 -44h165q90 0 166 44t120.5 120.5t44.5 165.5h33q55 0 93.5 39t38.5 93v34q0 54 -38.5 93t-93.5 39zM793 235q1 -57 -23 -112t-67 -97.5t-106.5 -67t-134.5 -20.5h-99q-71 -2 -134 24t-105 69t-66.5 97
t-24.5 107v265h760v-265zM958 367q0 -41 -29 -70t-70 -29h-33v232h33q41 0 70 -29t29 -70v-34zM198 665q1 -18 -7.5 -34.5t-16.5 -24.5l-9 -7h33q4 2 9.5 7.5t14.5 22.5t9 36q0 41 -33 80q-14 17 -23.5 41.5t-9.5 43.5q0 17 8.5 34t16.5 24l8 8h-33q-4 -3 -9.5 -8t-14.5 -22
t-9 -36q0 -16 10.5 -41.5t22.5 -41.5q3 -3 10 -12t8.5 -11.5t5.5 -9.5t5 -12.5t2.5 -15t1.5 -21.5zM396 665q1 -18 -7 -34.5t-17 -24.5l-9 -7h33q4 2 9.5 7.5t14.5 22.5t9 36q0 41 -33 80q-13 17 -23 41.5t-10 43.5q0 17 8.5 34t16.5 24l8 8h-33q-3 -3 -8.5 -8t-15 -22
t-9.5 -36q0 -16 10.5 -41.5t22.5 -41.5q3 -3 10 -12t8.5 -11.5t5.5 -9.5t5 -12.5t2.5 -15t1.5 -21.5zM595 665q0 -18 -8 -34.5t-17 -24.5l-8 -7h33q3 2 8.5 7.5t15 22.5t9.5 36q0 41 -33 80q-14 17 -23.5 41.5t-9.5 43.5q0 17 8 34t16 24l9 8h-33q-4 -3 -9.5 -8t-14.5 -22
t-9 -36q0 -16 10 -41.5t23 -41.5q2 -3 9.5 -12t8.5 -11.5t5.5 -9.5t5 -12.5t2 -15t2.5 -21.5z" />
    <glyph glyph-name="uniE62A" unicode="&#xe62a;" 
d="M512 -35q-85 0 -163 33q-76 32 -134 90t-89 133q-33 78 -33 163.5t33 163.5q31 75 89 133t134 90q78 33 163 33t163 -33q75 -32 133.5 -90t89.5 -133q33 -78 33 -164q0 -69 -22 -134q-21 -63 -61 -117q-5 -6 -12 -7t-13 3.5t-7.5 12t3.5 13.5q76 102 76 229
q0 104 -51.5 192.5t-139.5 140t-192 51.5t-192.5 -51.5t-139.5 -140t-51 -192.5t51 -192t139.5 -139.5t192.5 -51.5q124 0 224 73q7 4 14 3t11.5 -7t3.5 -13.5t-7 -12.5q-110 -79 -246 -79zM297 463q-5 0 -11 6q-9 14 0 18l51 40q47 38 109 38.5t112 -35.5
q44 -32 96.5 -30.5t94.5 35.5l16 13q8 8 19 -2q8 -8 -3 -19l-16 -13q-48 -40 -110.5 -41.5t-112.5 35.5q-42 31 -95 30.5t-94 -32.5l-48 -40q-1 0 -4 -1.5t-4 -1.5zM605 83h-2q-11 3 -11 16l21 93q8 32 -7.5 62t-45.5 44l-74 35q-8 4 -8 16l50 178q4 12 16 8t8 -16l-45 -167
l67 -30q39 -17 58 -55t11 -80l-24 -93q-6 -11 -14 -11zM257 173q-8 0 -13 11q-4 11 10 16l109 27q33 8 54 37l61 90q10 11 18 3q11 -11 3 -19l-61 -90q-24 -36 -69 -48l-109 -27h-1h-2zM581 572q-17 0 -29 8q-19 12 -24 35q-6 22 6.5 42t36.5 24q22 5 42 -8q20 -11 24 -34
q5 -22 -8 -43q-15 -20 -34 -24h-14zM581 657h-7q-13 -2 -19.5 -12t-2.5 -22q4 -13 14 -19q13 -9 23 -5q13 4 19 13q7 8 3 22q-4 12 -14 18q-10 5 -16 5z" />
    <glyph glyph-name="uniE62B" unicode="&#xe62b;" 
d="M861 609h-688q-46 0 -79 -33t-33 -79v-424q0 -46 33 -79t79 -33h688q46 0 79 33t33 79v424q0 46 -33 79t-79 33zM909 73q0 -20 -14 -34t-34 -14h-688q-20 0 -34 14t-14 34v424q0 20 14 34t34 14h688q20 0 34 -14t14 -34v-424zM666 312q10 0 17.5 7.5t7.5 17.5t-7.5 17.5
t-17.5 7.5h-94l96 96q7 7 7 17.5t-7.5 18t-17.5 7.5t-18 -8l-114 -114l-114 114q-7 8 -17.5 8t-17.5 -7.5t-7 -18t7 -17.5l96 -96h-97q-10 0 -17.5 -7.5t-7.5 -17.5t7.5 -17.5t17.5 -7.5h124v-55h-124q-10 0 -17.5 -7.5t-7.5 -18t7.5 -17.5t17.5 -7h124v-119
q0 -10 7.5 -17.5t17.5 -7.5t17.5 7.5t7.5 17.5v119h124q10 0 17.5 7t7.5 17.5t-7.5 18t-17.5 7.5h-124v55h124zM176 649h682q13 0 22.5 9.5t9.5 22.5t-9.5 22.5t-22.5 9.5h-682q-13 0 -22.5 -9.5t-9.5 -22.5t9.5 -22.5t22.5 -9.5zM261 751h512q13 0 22.5 9.5t9.5 23
t-9.5 22.5t-22.5 9h-512q-13 0 -22.5 -9t-9.5 -22.5t9.5 -23t22.5 -9.5z" />
    <glyph glyph-name="uniE62C" unicode="&#xe62c;" 
d="M948 273h-695q-11 0 -23 -6t-22.5 -18.5t-17 -29t-6.5 -37.5t5.5 -39t14.5 -32t22 -22t28 -8h694q-12 12 -21 27q-8 13 -14.5 31t-6.5 41q0 26 6.5 43t14.5 28q9 13 21 22zM948 -2q0 -17 -22 -17h-734q-34 0 -57.5 14.5t-38 39t-20.5 58.5t-6 73v582q0 78 41.5 112.5
t117.5 34.5h34h68h94q51 0 104.5 0.5t104.5 0.5h95h70h35q28 0 49.5 -11.5t35.5 -32t21.5 -48.5t7.5 -61v-406q-192 0 -346 1h-128q-64 0 -115 0.5t-84 0.5h-37q-21 0 -41 -12.5t-36 -34t-26.5 -50.5t-10.5 -60q0 -38 11 -68.5t28 -51.5t37.5 -32.5t40.5 -11.5h686
q8 0 14.5 -4.5t6.5 -15.5zM515 896v-389l77 109l77 -109v389h-154z" />
    <glyph glyph-name="uniE62D" unicode="&#xe62d;" horiz-adv-x="1025" 
d="M88 779zM0 779q0 37 25.5 62.5t62 25.5t62 -25.5t25.5 -62t-25.5 -62t-62 -25.5t-62 25.5t-25.5 61.5zM876 692zM789 692q0 36 25.5 61.5t62 25.5t62 -25.5t25.5 -61.5t-25.5 -62t-62 -26t-62 26t-25.5 62zM1007 486q-3 27 -28 38l-111 51l-95 48q-5 4 -11 7l-77 33
q-5 2 -9 3l-144 30q-19 4 -36 -7t-21 -31t7 -36.5t31 -20.5l138 -29l38 -16l-51 -68l-271 99q-21 8 -42 -1.5t-29 -31.5q-6 -17 -0.5 -34.5t19.5 -27.5l-47 -18l-33 121l18 4q26 6 35 31l54 149q7 19 -1.5 37t-27.5 25t-37 -2t-25 -27l-43 -121l-20 -7l-8 -2q-8 -2 -16 -7
l-71 -26q-17 -6 -24.5 -21.5t-2.5 -32.5l97 -309l1 1l10 -107l-97 -199q-10 -21 -2.5 -42.5t27.5 -31.5q12 -6 25 -6q34 0 49 31l105 213q7 14 5 30l-16 175h-1l27 17l83 30l83 -72q15 -14 36 -14q25 0 42 19q15 17 13.5 40t-18.5 38l84 -31q5 -1 11 -2v-1q-1 -8 0 -15
l26 -187l-13 -189q-2 -23 13 -40.5t38 -18.5h4q22 0 38 14.5t17 36.5l14 195q0 5 -1 11l-21 152l50 66l58 76l61 -28l13 -109q3 -18 16.5 -30.5t32.5 -12.5q3 0 5 1q20 2 32.5 18t10.5 35z" />
    <glyph glyph-name="uniE62E" unicode="&#xe62e;" 
d="M482 606q-28 0 -53 -15q-33 -22 -41.5 -61.5t13.5 -73.5q14 -22 63 -55t100 -61l3 2q-83 83 -131 138q-4 5 -3 14q1 8 7 11q7 5 14 0l2 -1q21 -16 29 -16l1 2q1 15 -3 33q-4 15 -8 26q-4 13 7 20q5 3 10 2q6 -2 9 -7l110 -185q-21 144 -47 183q-29 44 -82 44zM495 460
q33 -36 86 -89l-67 113q-5 -19 -19 -24zM953 322l-6 21l-7 20l-7 19l-7 19l-8 18l-6 18l-6 19l-5 19l1 8l4 9l4 8l2 8l-4 17l-4 16l-5 17l-5 16l-5 17l-6 16l-6 16l-7 16l-7 15l-8 15l-7 15l23 15l-8 14l-9 13l-9 13l-9 13l-9 11l-9 10l-9 9l-10 9l-9 9l21 8l-11 7l-11 8
l-11 7l-11 6l-11 6l-12 6l-12 5l-13 6l-13 4l-12 5l-16 5l-15 4l-15 4l-15 4l-16 3l-16 2l-15 2l-16 2l-16 1l-16 1h-15l-17 -1h-15l-16 -1l-16 -2l-15 -2l-17 -2l-16 -3l-16 -3l-17 -4l-16 -4l-16 -5l-16 -5l-16 -5l-15 -7l-15 -7l-16 -7l-14 -7l-15 -9l-13 -9l-13 -9
l-13 -11l-12 -10l-11 -10l-11 -11l-10 -12l-9 -13l-10 -12l-9 -13l-8 -14l-8 -14l-7 -14l-6 -14l-6 -14l-5 -15l-5 -15l-3 -15l-3 -15l-5 -31l-2 -31l1 -31l3 -30l5 -31l8 -30l10 -29l77 -124q36 -37 62 -78t37.5 -73t17.5 -59t7 -41v-15v-26l1 -81h441l2 8v26l1 26l2 58
l3 29l1 7l3 6l3 5l4 4l5 3l6 2l7 2l7 1l9 1l9 1h2l9 -1l8 -1l8 -1l8 -1l9 -1h9l-22 -1l10 -1h10l10 -1l7 1l6 1l7 2l6 4l6 4l5 4l4 5l4 6l2 11l-1 12l-2 12v11l2 6l2 4l2 5l3 4l4 4l2 4l2 5l1 5l-1 6l-1 5l-1 5l-3 5l-3 5l-4 4l-5 4l-6 3l6 3l6 4l6 4l4 4l3 4l2 5l1 5l-1 5
l-5 18l-4 16l-2 15v15l9 4l7 3l7 4l5 4l5 4l2 5l2 5zM511 765l36 -26l-54 -73l-35 26zM225 513l-10 43l101 23l10 -43zM317 608l-79 45l21 38l79 -44zM384 779l36 -83l-40 -18l-36 83zM560 305q-20 11 -46 25.5t-75.5 49.5t-64.5 58q-29 45 -18 98t56 82q32 21 70 21
q33 0 62 -15.5t47 -43.5q15 -23 28.5 -77.5t18.5 -86.5t8 -55l1 -6l-81 -53zM679 220q-19 -12 -35 -12q-5 0 -10 1q-14 3 -21 14q-3 4 -5 6l-36 55l94 60l36 -54q1 -2 3 -7q2 -2 3 -6q9 -32 -29 -57z" />
    <glyph glyph-name="uniE62F" unicode="&#xe62f;" 
d="M455 188q-11 0 -19.5 -3.5t-8.5 -8t8.5 -8t19.5 -3.5v23zM944 365q0 5 -1 15q14 2 19 15q20 56 20 113q0 73 -33 142q-4 9 -12.5 12t-16.5 -1l-60 -26l42 66q9 14 -1 27q-59 71 -148.5 115t-193.5 53q-18 1 -24 -16l-23 -75l-23 75q-6 17 -24 16q-104 -9 -193.5 -53
t-148.5 -115q-10 -13 -1 -27l42 -66l-60 26q-8 4 -16.5 1t-12.5 -12q-33 -69 -33 -142q0 -57 20 -113q5 -14 21 -15q-1 -8 -2 -14q-56 -45 -56 -119q0 -50 28.5 -89t72.5 -53q56 -107 160 -170t227 -63t227 63t160 170q43 15 71 54t28 88q0 73 -55 118zM858 189q-10 0 -19 4
q-35 -102 -124.5 -166t-202 -64t-202 64.5t-124.5 166.5q-10 -5 -20 -5q-21 0 -36 17t-15 41t15 41t36 17q12 -20 27 -38q-15 50 -15 99v4q0 3 0.5 6t0.5 4h27q0 -7 2 -14l26 -85q3 -10 12 -17t21 -7h146q20 0 29 17l50 85q5 10 4 21h32q-1 -11 4 -21l50 -85q9 -17 29 -17
h146q11 0 20 7t13 17l26 85q2 7 2 14h27q1 -13 1 -14q0 -49 -15 -99q15 18 27 38q21 0 36 -17t14.5 -41t-15 -41t-35.5 -17z" />
    <glyph glyph-name="uniE630" unicode="&#xe630;" 
d="M341 360q0 21 14.5 35.5t35 14.5t35 -14.5t14.5 -35.5t-14.5 -35.5t-35 -14.5t-35 14.5t-14.5 35.5zM584 360q0 21 14.5 35.5t35 14.5t35 -14.5t14.5 -35.5t-14.5 -35.5t-35 -14.5t-35 14.5t-14.5 35.5zM514 92h-2q-114 1 -182 58q-10 9 -11 21.5t7.5 22.5t21 11t22.5 -7
q51 -43 142 -44q92 -1 141 43q10 9 23 8t21.5 -10.5t7.5 -22.5t-10 -21q-67 -59 -181 -59zM238 597q-43 -49 -65.5 -110t-22.5 -127q0 -73 27 -139t78.5 -117.5t117.5 -78.5t139 -27t139 27t117.5 78.5t78.5 117.5t27 139q0 66 -22.5 127t-65.5 110q-26 -39 -101 -64
q-76 -25 -173 -25q-59 0 -113 10q-14 3 -21 15t-1 25q22 57 57 89q-61 -24 -101 -85q-7 -10 -18 -13t-21 3q-40 20 -56 45zM512 -64q-86 0 -165 33q-76 32 -135 91t-91 135q-33 79 -33 165t33 165q32 77 91 135.5t135 90.5q79 34 165 34q39 0 78 -7q17 4 27 16.5t13 26.5
q1 9 0 16t0 12.5t4 9.5q10 11 40 -16q14 -13 26 -38q14 -31 2 -65q61 -31 110 -80q59 -58 91 -135q34 -79 34 -165t-34 -165q-32 -76 -91 -135t-135 -91q-79 -33 -165 -33z" />
    <glyph glyph-name="uniE631" unicode="&#xe631;" 
d="M931 400q-5 107 -59.5 198t-145.5 145.5t-198 58.5v91h-34v-91q-107 -4 -198 -58.5t-145.5 -145.5t-59.5 -198h-90v-34h90q5 -108 59 -199t145 -145.5t199 -58.5v-91h34v91q108 4 199 58.5t145 145.5t59 199h91v34h-91zM827 400h-48q-7 101 -78.5 172.5t-172.5 77.5v48
q121 -6 206.5 -91.5t92.5 -206.5zM528 498q38 -5 65.5 -32.5t33.5 -65.5h-99v98zM494 400h-98q6 38 33 65t65 33v-98zM494 366v-99q-38 6 -65.5 33.5t-32.5 65.5h98zM528 366h99q-5 -38 -33 -66t-66 -33v99zM528 553v30q73 -6 125.5 -58t58.5 -125h-30q-6 61 -49.5 104.5
t-104.5 48.5zM494 553q-61 -6 -104 -49.5t-49 -103.5h-30q6 73 58 125t125 58v-30zM341 366q6 -61 49 -104.5t104 -49.5v-30q-73 6 -125 58.5t-58 125.5h30zM528 212q61 6 104.5 49.5t49.5 104.5h30q-6 -74 -58.5 -126t-125.5 -58v30zM494 698v-48q-101 -6 -172.5 -77.5
t-78.5 -172.5h-48q7 121 92.5 206.5t206.5 91.5zM195 366h48q7 -101 78.5 -173t172.5 -78v-48q-121 6 -206.5 92t-92.5 207zM528 67v48q101 6 172.5 78t78.5 173h48q-6 -121 -92 -207t-207 -92z" />
    <glyph glyph-name="uniE632" unicode="&#xe632;" 
d="M805.5 411q-37.5 0 -64 -26.5t-26.5 -64t26.5 -64t64 -26.5t64 26.5t26.5 64t-26.5 64t-64 26.5zM715 486q-26 98 -105.5 158.5t-183 60.5t-183.5 -60t-106 -158.5t12.5 -189.5t128.5 -141t189.5 -36.5t171.5 86.5l-213 205zM379 571q0 23 16.5 40t39 17t39 -17t16.5 -40
t-16.5 -40t-39 -17t-39 17t-16.5 40z" />
    <glyph glyph-name="uniE633" unicode="&#xe633;" 
d="M964 570q-1 -19 0 -55.5t2 -63.5t-2 -67.5t-9.5 -72.5t-21 -73.5t-36 -76.5t-56.5 -75t-80 -75t-108.5 -71t-140.5 -68q-20 9 -60 26.5t-64 28.5t-63 32t-64 39t-57.5 48t-53 60.5t-42 74.5t-32.5 93t-16 112t-1 135q3 20 1 38.5t-1.5 30.5t-2.5 24.5t-4 20t-5.5 15.5
t-6.5 12.5t-8 11t-9.5 9.5t-10.5 9.5t-12 11.5q4 14 8 31l28 99q85 -39 194 -39q92 0 167.5 28t113.5 73q38 -45 114 -73t168 -28q109 0 193 38l38 -133q-13 -8 -25 -19.5t-24.5 -42t-10.5 -68.5zM517 -16q147 61 233 139q-53 14 -104 62l-129 127l-137 -128v1
q-51 -44 -115 -61q26 -26 61.5 -48.5t61 -34.5t69 -30.5t60.5 -26.5zM893 731q-67 -29 -153 -29q-73 0 -133 21.5t-91 57.5q-30 -36 -90 -57.5t-133 -21.5q-86 0 -153 30l-21 -63q43 -42 39 -183q-14 -241 106 -360q10 53 68 109h-1l136 126l-101 100h-1v1h-1q-13 14 -32 14
t-33 -14q-21 -21 -10 -48q-20 -6 -27 1q-11 11 2.5 39.5t43.5 63.5l-63 61l11 11l-39 47l20 20l47 -39l12 11l62 -62q35 30 64.5 43t39.5 3q8 -8 2 -27q-28 11 -50 -10q-13 -13 -13 -32t13 -32q1 -1 2 -1v-1l102 -101l101 94v1h1q1 0 1 1q14 12 14.5 31t-12.5 33
q-21 21 -49 11q-6 20 2 27q11 10 39.5 -4t63.5 -44l64 59l11 -11l49 38l19 -20l-41 -46l11 -11l-64 -60q29 -36 41 -65t2 -39q-8 -7 -28 -1q12 27 -9 49q-13 14 -32 14.5t-33 -12.5l-1 -1v-1l-100 -92l128 -126q40 -43 61 -103q36 34 60 72t36 69.5t17.5 71t5.5 64.5
t-0.5 63t-0.5 53q-2 46 11.5 91.5t25.5 53.5z" />
    <glyph glyph-name="uniE634" unicode="&#xe634;" 
d="M840 320q-76 0 -130 -37.5t-54 -90.5q0 43 -39 78l27 26l-1 1q60 61 107 126.5t71.5 114.5t40 89.5t20.5 62.5l4 21q-9 -2 -25.5 -7t-66 -24t-96.5 -42.5t-110 -64.5t-115 -89l-1 1l-185 -181v528h11q20 28 67 46t106.5 18t106.5 -18t66 -46h23q19 28 66.5 46t106.5 18
t106 -18t67 -46h11v-640q0 53 -54 90.5t-130 37.5zM333 619h230v46h-230v-46zM610 757h-231v-46h231v46zM619 520q32 29 73 50.5t65 28.5l25 7q-1 -3 -2 -8.5t-7.5 -22.5t-16 -34.5t-28 -42.5t-42.5 -49l-403 -377h1v-1q-1 0 -1.5 -0.5t-1.5 -0.5q-19 -18 -19.5 -44.5
t17.5 -46.5q13 -14 32 -18t36 2q8 -27 -3 -38q-15 -14 -55.5 5.5t-88.5 63.5l-89 -84l-15 15l-69 -53l-27 29l58 64l-15 16l89 84q-41 50 -58 91t-2 55q11 11 38 2q-7 -17 -4 -36t16 -33q19 -19 45.5 -20t45.5 17l1 1t1 2q0 -1 1 -1l402 378z" />
    <glyph glyph-name="uniE635" unicode="&#xe635;" 
d="M838 676h-652q-9 25 -40 74t-53 68q-1 77 66 78q63 0 251 -81q30 -13 102 -45q319 170 398 112q27 -20 21 -64q-27 -30 -60.5 -78.5t-32.5 -63.5zM875 628q72 -93 110.5 -180t38.5 -198q0 -207 -92 -378h-840q-92 171 -92 378q0 113 38.5 199.5t110.5 178.5h726zM374 117
v-58q39 -27 98 -27v-65h30v67q48 8 75.5 38t27.5 76q0 37 -22 66.5t-81 58.5v159q48 -2 78 -27v56q-21 16 -78 18v55h-30v-56q-44 -7 -72 -40t-28 -78q0 -39 19 -67t81 -61v-153q-59 2 -98 38zM555 143q0 -50 -53 -62v135q53 -31 53 -73zM422 366q0 52 50 64v-139
q-28 17 -39 33.5t-11 41.5z" />
    <glyph glyph-name="uniE636" unicode="&#xe636;" 
d="M512 -128q-139 0 -257 68.5t-186.5 186.5t-68.5 257t68.5 257t186.5 186.5t257 68.5t257 -68.5t186.5 -186.5t68.5 -257t-68.5 -257t-186.5 -186.5t-257 -68.5zM909 242q14 9 23 8q-6 5 -10 25q-1 1 -2 9t-2 11t-4.5 8t-8.5 7q-21 9 -30.5 -5.5t4.5 -29.5
q-20 0 -23 -17.5t17 -26.5q4 -2 8 -2.5t8.5 1t6.5 3t7 5t6 4.5zM813 94q31 8 45 2q-8 11 -3 43q0 3 2 15.5t2.5 18.5t-2.5 15t-11 15q-18 16 -37.5 13t-26 -19t1.5 -36q-23 7 -39 -3t-16 -27.5t18 -35.5q6 -5 12.5 -7.5t14.5 -2t12.5 1.5t14.5 4t12 3zM654 21q4 -4 7.5 -5.5
t8 -1t7 1t8 2t7.5 1.5q17 5 25 1q-5 7 -2 26q0 2 1 10t1 11t-1.5 9t-5.5 10q-17 15 -30.5 4t-4.5 -30q-20 7 -28.5 -8.5t7.5 -30.5zM293 16l2 1q-2 9 9 20q-5 -15 7 -23t25 5q4 3 5.5 8t1.5 8t-1.5 9.5t-1.5 7.5q-2 17 1 23q-7 -4 -22 0q-1 0 -6 1.5t-7.5 2t-6.5 0.5
t-7 -1.5t-6 -3.5q-13 -13 -6.5 -26t22.5 -9q-14 -12 -20 -8v1l-1 -1q1 -8 12 -15zM165 103q4 -4 4 0q-1 18 23 35q-14 -27 5 -45t47 0q8 5 12 12.5t4.5 15.5t1 16.5t-0.5 15.5q2 31 11 40q-14 -4 -40 8q-2 1 -10.5 5t-12.5 5.5t-11.5 3t-13.5 0t-12 -5.5q-19 -12 -22 -29
t8.5 -28.5t31.5 -9.5q-29 -17 -39 -8q0 1 -1 0h-1q0 -6 6.5 -17t9.5 -14zM94 254q1 -2 2 0q2 9 17 14q-12 -11 -4.5 -23.5t24.5 -8.5q5 2 8.5 5.5t5 6t3.5 9t2 7.5q6 16 12 19q-8 0 -19 11q-1 1 -5 4.5t-6 4.5l-6 4q-4 3 -6 2t-7 -1q-18 -5 -18.5 -19.5t16.5 -18.5
q-18 -4 -21 3q-1 0 -1.5 0.5t-0.5 -0.5q-2 -7 4 -19zM100 519l16 -44l37 7l-16 44zM225 674l-75 -2l18 -92l75 2zM322 753l-37 7l-1 -46l36 -8zM233 384q0 -116 81.5 -197.5t197.5 -81.5t197.5 81.5t81.5 197.5t-81.5 197.5t-197.5 81.5t-197.5 -81.5t-81.5 -197.5zM699 725
q19 18 27 13q1 -1 2 0q-1 4 -7 10.5t-9 8.5q-1 0 -2 -1q3 -13 -12 -27q-1 -2 -2 -1t1 4q6 16 -5 27q-5 6 -14.5 5t-17.5 -9q-15 -15 -5 -25q5 -6 13 -6q1 0 1 -1t-1 -1q-12 -2 -19 -8q-11 -11 6 -29q15 -16 27 -5q8 8 6 17l2 1q2 -11 6 -15q11 -12 27 4q7 6 8.5 15.5
t-4.5 15.5q-10 10 -26 5q-2 0 -2.5 0.5t0.5 1.5zM817 634q27 23 39 15h2v1q-1 5 -8.5 14t-11.5 12q-3 1 -4 -1q4 -17 -18 -37q-2 -1 -3 -1q-1 2 1 7q4 5 3 17.5t-7 19.5q-7 8 -20.5 7t-24.5 -11q-22 -19 -9 -34q7 -9 18 -9q2 -1 2 -2t-2 -1q-17 -2 -26 -10q-17 -15 5 -39
q11 -13 23 -14t14 4q12 10 10 24h2q3 -15 8 -21q7 -7 17.5 -5.5t20.5 9.5q10 9 12.5 21.5t-4.5 21.5q-13 15 -36 9q-3 -1 -4 0t1 3zM920 529q-2 3 -2 0q-2 -13 -21 -22q-2 0 -2.5 1t2.5 3q11 13 5 27q-3 7 -12 9.5t-20 -1.5q-19 -9 -14 -22q4 -7 11 -10q1 -1 1 -1.5t-1 -0.5
q-13 2 -21 -1q-15 -6 -5 -28q4 -11 11 -14t12 -1q10 4 12 14q0 1 1 0h1q-2 -11 0 -17q3 -6 10.5 -7.5t16.5 1.5q9 4 13.5 12.5t1.5 15.5q-5 13 -22 14q-2 0 -2.5 1t1.5 2q23 10 29 2q1 -1 1.5 -1t0.5 1q2 9 -8 23zM512 151q-96 0 -164.5 68.5t-68.5 164.5t68.5 164.5
t164.5 68.5t164.5 -68.5t68.5 -164.5t-68.5 -164.5t-164.5 -68.5z" />
    <glyph glyph-name="uniE637" unicode="&#xe637;" horiz-adv-x="1025" 
d="M861 116q0 -32 1 -63t3 -55t4.5 -45t5 -35.5t4.5 -25t3 -15.5l2 -5h-441l5 48q-1 3 -2 8t-9.5 15.5t-22 15t-43 -0.5t-67.5 -23q-88 -31 -159 1q-51 22 -49 58q1 31 45 54q4 9 2.5 18.5t-20.5 17t-51 9.5q-4 7 -3 12t2.5 7.5t7.5 4t11 2.5t13 2t14 3q4 1 -5 5
q-24 12 -40 10q0 12 -0.5 21.5t10.5 15.5t36 8q14 20 9 29t-32 17l-19 -1q-79 2 -76 49q3 53 118 156q-1 7 -2.5 20t-1 52.5t6 76t22.5 84.5t44 86.5t75 73t111 52.5t157 16.5t208 -26.5q76 -23 132 -56t88 -71t48 -85t18 -91.5t-9 -98t-26 -97t-39.5 -94.5t-44.5 -85.5
t-44 -74.5zM520 87q30 0 51.5 21t21.5 51t-21.5 51t-51.5 21t-51 -21t-21 -51t21 -51t51 -21zM593 710q-60 23 -115 9t-95.5 -47t-62.5 -75.5t-18 -77.5h146q-1 2 -1 5t1.5 11.5t6 15t15 11.5t26.5 5q43 1 53 -37q14 -48 -35 -103q-26 -29 -66 -52v-96h145v96
q29 -1 54.5 12.5t41.5 38t26 55t6.5 64t-16 65t-41.5 58.5t-71 42z" />
    <glyph glyph-name="uniE638" unicode="&#xe638;" 
d="M512 -128q-139 0 -257 68.5t-186.5 186.5t-68.5 257t68.5 257t186.5 186.5t257 68.5t257 -68.5t186.5 -186.5t68.5 -257t-68.5 -257t-186.5 -186.5t-257 -68.5zM648 -14q107 37 182 123.5t96 198.5q-41 8 -163 48q-22 7 -44 21q-2 -59 -34 -108l-82 -141q39 -51 45 -142z
M512 265q49 0 84 35t35 84t-35 84t-84 35t-84 -35t-35 -84t35 -84t84 -35zM376 -14q5 95 44 144l-81 139q-7 11 -13 24v0q-20 39 -21 84q-22 -14 -44 -21q-122 -40 -163 -48q21 -112 96 -198.5t182 -123.5zM512 805q-110 0 -204 -52.5t-151.5 -143t-64.5 -199.5q85 4 161 43
q52 26 106 70q61 68 153 68t153 -68q54 -44 106 -70q76 -39 161 -43q-7 109 -64.5 199.5t-151.5 143t-204 52.5zM512 460q32 0 54 -22t22 -54t-22 -54t-54 -22t-54 22t-22 54t22 54t54 22z" />
    <glyph glyph-name="uniE639" unicode="&#xe639;" 
d="M811 500h-535l560 120q38 8 58.5 40.5t12.5 70t-40 58t-70 12.5l-596 -128q-37 -8 -58 -40.5t-12 -69.5q10 -48 57 -67q-34 -8 -56 -35.5t-22 -63.5v-337q0 -42 30.5 -72t72.5 -30h598q43 0 73 30t30 72v337q0 43 -30 73t-73 30zM858 397v-47h-210l85 94h78
q20 0 33.5 -14t13.5 -33zM330 350l86 94h241l-85 -94h-242zM213 618l596 128q4 1 8 1q10 0 19 -6q13 -8 16.5 -22.5t-5 -27.5t-23.5 -16l-595 -128q-15 -3 -27.5 5t-16 22.5t5 27.5t22.5 16zM166 397q0 19 14 33t33 14h127l-85 -94h-89v47zM811 14h-598q-19 0 -33 13.5
t-14 32.5v234h692v-234q0 -19 -13.5 -32.5t-33.5 -13.5z" />
    <glyph glyph-name="uniE63A" unicode="&#xe63a;" 
d="M986 152q-163 41 -195 57q-4 4 -21.5 23.5t-31.5 36.5l-15 17l-32 183q37 -11 54 -36t31 -79q4 -13 14.5 -21t23.5 -8q6 0 11 1q15 4 23.5 18.5t3.5 29.5q-9 44 -30 77.5t-44.5 53t-53 32t-53 17t-48.5 5.5t-34 0.5t-15 -1.5q-37 -2 -73.5 2t-57.5 10.5t-24 11.5
q-31 44 -35 122q-1 16 -13 27t-28 10q-7 0 -14 -3q23 25 23 59q0 35 -25 60.5t-60.5 25.5t-61 -25.5t-25.5 -61t25.5 -61t60.5 -25.5q25 0 47 14q-8 -11 -7 -24q5 -105 51 -167q31 -40 141 -52l48 -231q-1 -14 -3 -36.5t-4.5 -66t-0.5 -58.5q7 -50 151 -189q15 -15 35 -15
q22 0 37 16q14 15 14 36t-15 36q-23 21 -53 54.5t-49 56.5l-19 22q3 58 7 102q1 3 5 4t6 -2q13 -17 39.5 -47.5t39.5 -38.5q35 -23 225 -71q6 -1 12 -1q17 0 31 10.5t18 27.5q6 21 -5 39t-31 23zM583 574.5q41 8.5 63.5 43.5t14 76t-44 64t-76.5 14t-63.5 -44t-14 -76
t44 -63.5t76.5 -14zM18 690l-18 -1l59 -248h148l50 249h-239zM189 455l-5 10l-6 -10h-15l13 25l-19 37l-19 -37l13 -25h-15l-5 10l-6 -10h-15l13 25l-19 37l-19 -37l13 -25h-15l-5 10l-6 -10h-2l-4 16l4 9l-12 24l-13 53l6 -11l19 37l-19 37l-14 -28l-4 20l11 22l-22 42h15
l14 -28l15 28h24l14 -28l14 28h25l14 -28l14 28h25l14 -28l14 28h15l-22 -42l11 -21l-4 -21l-14 28l-19 -37l19 -37l7 14l-9 -48l-17 -32l7 -15l-2 -10h-7zM104 620l-19 -37l19 -37l19 37zM59 531l19 -37l19 37l-19 37zM112 531l19 -37l19 37l-19 37zM157 620l-19 -37
l19 -37l19 37zM184 568l-19 -37l19 -37l19 37zM203 634l-19 37l-19 -37l19 -37zM97 634l-19 37l-19 -37l19 -37zM150 634l-19 37l-19 -37l19 -37z" />
    <glyph glyph-name="uniE63B" unicode="&#xe63b;" horiz-adv-x="1366" 
d="M1049 671l-529 82q-21 3 -37.5 -10t-19.5 -35l-4 -29h490q21 0 36 -15t15 -36v-616l92 600q3 22 -9 39t-34 20zM927 662h-535q-22 0 -35.5 -14t-13.5 -36v-710q0 -22 13.5 -37.5t35.5 -15.5h535q21 0 36 16t15 37v710q0 21 -14.5 35.5t-36.5 14.5zM856 173
q-16 -38 -44.5 -66.5t-67 -45t-82 -16.5t-81.5 16.5t-66.5 45t-45 66.5t-16.5 81.5t16.5 82t45 67t66.5 45t81.5 16.5t82 -16.5t67 -45t44.5 -67t16 -82t-16 -81.5zM799 293q-3 2 -4 2q-3 2 -4 2h-2h-81q-3 0 -4 1q-3 1 -3 3l-23 84l-2 4q0 1 -1 3q-2 2 -5 4t-7 3
q-5 -1 -8 -3t-4 -4t-1 -4l-2 -4l-24 -83q0 -2 -2 -3q-1 -1 -4 -1h-81q-1 0 -3 -1h-1q-2 0 -5 -2q-4 -1 -6 -4q-4 -4 -3 -9q0 -3 1 -5.5t2 -3.5q2 -3 7 -5l65 -43v-1v-2q1 0 0 -2v-2v-1l-24 -83q-1 0 -0.5 -1.5t0 -2t-0.5 -3.5q0 -1 1 -4q0 -2 3 -5q1 -3 4.5 -4.5t5.5 -1.5
q6 0 8.5 1.5t4.5 4.5l64 54q0 1 3 1q2 0 3 -1l67 -55q1 0 3 -0.5t3 -1t7 -0.5h1h5q4 2 5 3q2 3 2 5q1 2 1 3q0 2 -0.5 4t-1.5 4l-28 84q-1 0 -1 1q0 2 1 4l2 2l65 43q4 2 6 5q1 1 2.5 3.5t1.5 5.5q0 5 -3 9q-2 2 -5 3z" />
    <glyph glyph-name="uniE63C" unicode="&#xe63c;" 
d="M1011 405l-230 401q-6 10 -17.5 16t-21.5 6h-460q-10 0 -21.5 -6t-17.5 -16l-230 -401q-14 -21 0 -42l230 -401q6 -10 17.5 -16t21.5 -6h460q10 0 21.5 6t17.5 16l230 401q14 21 0 42zM555 554.5q0 -19.5 -12 -31t-31 -11.5t-31 11.5t-12 31t12 31t31 11.5t31 -11.5
t12 -31zM512 43q-144 3 -242.5 101.5t-98.5 239.5q0 92 45.5 171t124.5 124.5t171 45.5v0q-70 0 -120.5 -50t-50.5 -120.5t50.5 -120.5t120.5 -50v0q70 0 120.5 -50t50.5 -120.5t-50.5 -120.5t-120.5 -50zM512 213zM469 213.5q0 17.5 12.5 30t30.5 12.5t30.5 -12.5t12.5 -30
t-12.5 -30t-30.5 -12.5t-30.5 12.5t-12.5 30z" />
    <glyph glyph-name="uniE63D" unicode="&#xe63d;" 
d="M768 510q-30 0 -56 10t-46 10q-14 0 -20.5 -5t-5.5 -10v-5v-317q-1 -40 -24 -65.5t-85 -25.5q-34 0 -58.5 21t-24.5 50.5t24.5 50.5t58.5 21h71v401q-1 2 -0.5 5.5t7 9t18.5 5.5q13 -3 42.5 -8t46.5 -8.5t37.5 -8.5t30.5 -10t10 -11v-90q0 -3 -1 -6t-7.5 -8.5t-17.5 -5.5
zM230 351h295v-39h-295v39zM230 456h295v-39h-295v39zM230 561h295v-39h-295v39z" />
    <glyph glyph-name="uniE63E" unicode="&#xe63e;" 
d="M1024 291h-47l-93 186q-14 -3 -279 -46q-14 -85 -32 -154t-34.5 -111.5t-35.5 -74t-32.5 -46t-27 -23t-18 -9.5t-6.5 -1h-47v-93h47v-47h-47h-46h-186h-47h-46v47h46v93h-46q-13 8 -23 31.5t-14 47t-6.5 51.5t-3 39t-0.5 17q105 202 164 309q20 37 42 61t44.5 33.5
t38.5 12.5t37 3q6 27 18 47t24.5 28.5t24 13t18.5 4.5h8v93h-372v46h372v47h46v-47h373v-46h-373v-93q22 0 39.5 -10t27 -23.5t16 -27t8.5 -23.5l3 -9h325l92 208h48l-47 -208q-2 -38 0 -47h47v-93h-47zM233 477q-9 -23 -32.5 -81t-42.5 -105l-18 -47h93q67 55 78 137
q9 66 -27 91q-21 14 -51 5zM326 12h-186v-93h186v93zM465 466q0 11 -7 11h-78q-8 0 -8 -11v-257q0 -11 8 -11h78q7 0 7 11v257z" />
    <glyph glyph-name="uniE63F" unicode="&#xe63f;" 
d="M800 361q121 -88 181 -163.5t37 -113.5q-27 -39 -129 -26t-247 72q-20 -118 -54.5 -188t-75.5 -70t-75.5 70t-54.5 188q-145 -59 -247 -72t-129 26q-23 38 37 113.5t181 163.5q-121 87 -181 162.5t-37 114.5q27 38 127 25.5t243 -69.5q17 136 54 219t82 83t82 -83
t55 -219q142 57 242 69.5t127 -25.5q23 -39 -37 -114.5t-181 -162.5zM880 159q14 23 -21 68t-107 101q-46 -32 -94 -60q-3 -42 -8 -83q91 -34 152 -41.5t78 15.5zM512 475q-37 -18 -53 -27q-11 -6 -46 -27q-1 -19 -1 -37q0 -39 3 -85q36 -21 44 -25q15 -9 53 -28
q35 18 53 28q9 4 44 25q3 43 3 85q0 2 -1 37q-36 21 -46 27q-15 8 -53 27zM416 482q2 1 7.5 4.5t8.5 5.5q4 2 11.5 5.5t10.5 5.5q-34 15 -35 16q-3 -30 -3 -37zM362 390q-18 -12 -44 -30q13 -9 46 -30q-2 51 -2 54v4v2zM604 237q-2 -1 -6 -3.5t-6 -3.5q-4 -2 -11.5 -6
t-10.5 -5q1 -1 12.5 -6t16.5 -8q4 23 5 32zM661 331q20 13 45 30q-12 8 -44 29v-3v-3q0 -26 -1 -53zM512 12q23 0 43.5 37.5t34.5 102.5q-36 16 -78 37q-40 -20 -78 -37q14 -65 34.5 -102.5t43.5 -37.5zM454 219l-10 5l-12 6q-2 1 -5.5 3t-5.5 3q0 -3 1.5 -14t1.5 -17
q6 2 16 7zM144 159q17 -23 78 -15.5t152 41.5q-4 34 -8 83q-49 29 -94 59q-72 -55 -107 -100t-21 -68zM144 562q-14 -23 21 -68t107 -100q45 30 92 58q1 43 5 86q-89 34 -148.5 40.5t-76.5 -16.5zM512 756q-27 0 -49.5 -49.5t-36.5 -133.5q41 -18 86 -40q45 22 86 40
q-13 84 -36 133.5t-50 49.5zM570 503q1 -1 9 -5t13 -6q3 -2 8.5 -5t7.5 -5q-3 33 -3 37q-1 0 -35 -16zM880 562q-17 23 -76.5 16.5t-148.5 -40.5q4 -38 5 -86q48 -29 92 -58q72 55 107 100t21 68z" />
    <glyph glyph-name="uniE640" unicode="&#xe640;" 
d="M151 115l-59 -60q-17 -17 -39.5 -63t-36.5 -80.5t-14 -37.5q143 54 181 90l50 49q-54 50 -82 102zM823 738q39 -13 56 -19q14 -3 21 -6h2l37 36l15 -15q6 -7 14.5 -7t14.5 7l30 30q7 6 7 14.5t-7 15.5l-89 89q-7 7 -15.5 7t-14.5 -7l-30 -30q-6 -6 -6 -14.5t6 -15.5
l13 -12l-66 -69q4 0 12 -4zM41 734q6 -7 14.5 -7t14.5 7l15 15l37 -36h2q5 0 21 6q17 6 56 19q8 4 12 4l-66 69l15 15q7 6 7 14.5t-7 14.5l-30 30q-6 7 -14.5 7t-15.5 -7l-91 -91q-7 -7 -7 -15.5t7 -14.5zM930 55l-60 60q-27 -52 -79 -100l2 -1l1 -1l1 -2l1 -1l1 -1l2 -1
l1 -1l1 -1l1 -2l1 -1l1 -1l1 -1l2 -1l1 -1l1 -1l1 -1l1 -2l1 -1l1 -1l1 -1l1 -1l1 -1l1 -1l1 -1l1 -1l1 -1l2 -2l2 -1l1 -2l1 -1l2 -1l1 -2l1 -1l2 -1l1 -2l1 -1l2 -1l1 -1l1 -2l1 -1l2 -1q17 -17 62 -39.5t82 -36.5l37 -14q-6 16 -16 40.5t-34.5 73t-41.5 65.5zM843 663
q-36 12 -43 15q-93 34 -177 77q-67 35 -111 71q-54 -41 -111 -71q-84 -43 -177 -77q-7 -2 -21 -7t-22 -8v-25v-145v-15v-154v-51v-15v-4q0 -143 167 -252q46 -31 123 -62q15 -6 41 -15q26 9 41 15q54 22 123 62q167 107 167 252v409zM683 491h-278v-235q0 -13 27 -34.5
t53 -36.5l27 -14q4 2 11.5 6t26 15t32.5 21t25.5 22.5t11.5 20.5v107h-75v-64h-64v128h203v-171q0 -24 -17.5 -49t-43 -43.5t-50.5 -34t-42 -23.5l-18 -8q-7 3 -18.5 8.5t-41 22.5t-52 34.5t-41 43t-18.5 49.5v299h342v-64z" />
    <glyph glyph-name="uniE641" unicode="&#xe641;" horiz-adv-x="2500" 
d="M1506 896h-512q-26 0 -45 -19t-19 -45v-896q0 -26 19 -45t45 -19h512q26 0 45 19t19 45v896q0 26 -19 45t-45 19v0zM1444 -63h-379v63h379v-63v0zM1506 64h-512v768h512v-768v0zM1506 64zM1463 369h-410q0 47 20.5 88t57.5 69l-76 109l1 1l-4 2q-8 9 1 18t18 0l2 -4l1 1
l77 -113q49 29 107 29q56 0 104 -28l67 109l1 -1l2 4q9 9 18 0.5t1 -17.5l-4 -2l1 -1l-65 -106q37 -28 58.5 -69.5t21.5 -88.5zM1258 539q-62 0 -113 -42t-51 -98h328q0 56 -51.5 98t-112.5 42zM1331 441q-7 0 -12 5t-5 12t5 12t12 5t12 -5t5 -12t-5 -12t-12 -5zM1181 441
q-7 0 -12 5t-5 12t5 12t12 5t12.5 -5t5.5 -12t-5.5 -12t-12.5 -5zM1066 320q7 0 12 -5t5 -12q0 -2 2 -6t8 -8.5t14 -4.5h296q9 0 15.5 4.5t8.5 7t2 1.5q0 7 5 12t12 5t12 -5t5 -12q2 -1 0.5 -12t-12.5 -22.5t-31 -11.5h-329q-9 0 -16.5 2.5t-11.5 7t-7 10t-4.5 11.5t-2 10.5
t-0.5 7.5v3q0 7 5 12t12 5zM1066 320z" />
    <glyph glyph-name="uniE642" unicode="&#xe642;" 
d="M156 253h96q15 0 26.5 -11.5t11.5 -27t-11.5 -27t-26.5 -11.5h-96q-16 0 -27 11.5t-11 27t11 27t27 11.5zM290 521q0 -16 -11.5 -27.5t-26.5 -11.5h-96q-16 0 -27 11.5t-11 27.5t11 27t27 11h96q15 0 26.5 -11t11.5 -27zM691 502q-17 0 -31.5 -9.5t-21.5 -25.5
q-30 15 -62 15t-62 -15q-7 16 -21 25.5t-31 9.5q-24 0 -41 -17t-17 -41q0 -20 12 -35t31 -20q-5 -17 -5 -31q0 -51 39.5 -87.5t94.5 -36.5t94.5 36.5t39.5 87.5q0 14 -5 31q19 5 31 20t12 35q0 24 -17 41t-40 17zM824 4h-592q-15 0 -26.5 11.5t-11.5 26.5v96h58q30 0 53 23
t23 54t-23 53.5t-53 22.5h-58v153h58q30 0 53 23t23 54t-22.5 54t-53.5 23l-58 -1v96q0 16 9.5 27t24.5 11h598q15 0 26 -11t11 -27v-652q0 -16 -11.5 -26.5t-27.5 -10.5z" />
    <glyph glyph-name="uniE643" unicode="&#xe643;" horiz-adv-x="1037" 
d="M612 750l35 -18l-20 -39l-35 18zM130 513l-19 37l33 16l19 -37zM695 25l-35 18l19 38l35 -17zM569 838l-53 -114l-49 101l-465 -242l301 -652l215 100l200 -101l318 669zM64 567l374 192l50 -88l-248 -489zM329 -10l-83 181l229 -116zM701 -6l-401 198l297 584l386 -198z
M799 462q-21 11 -48.5 13.5t-47.5 -4.5q-1 10 -5 20q-11 34 -43 51q-20 11 -45 11q-28 0 -52.5 -13.5t-36.5 -35.5q-14 -26 -14 -62t8 -65.5t22 -62.5t20.5 -45.5t11.5 -20.5l5 -8h14q23 0 49.5 2.5t65 10.5t71 27.5t47.5 47.5q20 33 15 75t-37 59zM793 344
q-12 -23 -40.5 -38.5t-63 -22t-56.5 -9t-41 -2.5q-9 16 -18 35t-17.5 44.5t-13.5 49t-4 47.5t10 40q8 14 25 23.5t36 9.5q17 0 29 -7q21 -12 29 -33q7 -22 -3 -41l28 -16q11 21 46 21q24 0 44 -11t21 -41t-11 -49z" />
    <glyph glyph-name="uniE644" unicode="&#xe644;" 
d="M993 271q2 -18 -4 -55t-25 -81.5t-52.5 -91t-88 -84.5t-131 -62.5t-180.5 -24.5q-103 0 -180 24.5t-131.5 62.5t-88 84.5t-52.5 91t-25 81.5t-4 55q2 23 12.5 47.5t32.5 42.5t57 22.5t84 -12.5q42 -16 69.5 -31t57 -28t67.5 -21t101 -8q62 0 100.5 8t68 21t57 28t69.5 31
q50 17 84.5 12.5t56.5 -22.5t32.5 -42.5t12.5 -47.5zM511 44q53 0 98 9t82 24t66 34.5t52 40.5q52 48 83 108q-35 -37 -89 -65q-46 -25 -118 -45.5t-173 -20.5q-102 0 -174 20.5t-118 45.5q-54 28 -90 65q31 -60 83 -108q23 -21 52 -40.5t66 -34.5t81.5 -24t98.5 -9z
M265 439q-5 41 -14 75q-8 30 -20.5 58t-30.5 41q-20 12 -48.5 22t-55.5 18q-31 10 -65 16q34 6 65 14q27 7 55.5 17.5t48.5 22.5q18 11 30.5 40t20.5 58q9 34 14 75q4 -41 14 -75q8 -29 20 -58t31 -40q19 -12 48 -22.5t55 -17.5q32 -8 66 -14q-34 -6 -66 -16q-26 -8 -55 -18
t-48 -22q-19 -13 -31 -41t-20 -58q-10 -34 -14 -75zM760 439q-5 41 -15 75q-8 30 -20 58t-31 41q-19 12 -48 22t-55 18q-32 10 -66 16q34 6 66 14q26 7 55 17.5t48 22.5q19 11 31 40t20 58q10 34 15 75q4 -41 13 -75q8 -29 20.5 -58t31.5 -40q19 -12 47.5 -22.5t55.5 -17.5
q31 -8 65 -14q-34 -6 -65 -16q-27 -8 -55.5 -18t-47.5 -22q-19 -13 -31.5 -41t-20.5 -58q-9 -34 -13 -75zM392 444q0 25 10 47t25.5 38.5t37.5 25.5t47 9t47 -9t38 -25.5t26 -38.5t10 -47t-10 -47t-26 -38.5t-38 -25.5t-47 -9t-47 9t-37.5 25.5t-25.5 38.5t-10 47zM560 522
q-13 0 -23 -9t-10 -23t10 -23t23 -9q14 0 23 9t9 23t-9 23t-23 9z" />
    <glyph glyph-name="uniE645" unicode="&#xe645;" 
d="M971 143l-2 18l-3 17l-3 9l-2 9l-3 9l-4 10l-3 10l-4 9l-8 16l-6 14l-7 13l-5 11l-7 11l-5 9l-10 15l-12 19l-3 5l-1 2v1l2 7l3 6l2 11l2 6v6v5v5v6l-1 4l-2 10l-2 9l-3 8l-3 8l-4 7l-3 7l-3 6l-6 9l-2 3v2l-3 18l-1 11l-2 14l-3 15l-4 17l-3 9l-2 8l-3 9l-3 10l-3 9
l-4 10l-8 19l-5 9l-6 10l-5 9l-6 10l-7 10l-7 8l-8 10l-8 8l-8 8l-9 9l-5 3l-5 4l-11 7l-12 8l-12 7l-13 7l-13 6l-13 6l-14 4l-15 4l-13 4l-15 3l-13 4l-15 1l-14 2l-15 2h-15h-14h-14l-14 -1l-14 -2l-14 -2l-13 -2l-14 -3l-13 -3l-13 -4l-12 -4l-12 -4l-12 -6l-12 -5
l-10 -6l-10 -6l-10 -7l-10 -8l-8 -7l-12 -12l-10 -10l-10 -11l-9 -11l-9 -11l-7 -10l-7 -11l-4 -5l-3 -6l-7 -10l-5 -10l-5 -10l-4 -10l-4 -9l-3 -9l-3 -9l-4 -8l-4 -16l-3 -15l-1 -12l-2 -11v-8v-7v-6l-3 -3l-3 -4l-2 -4l-2 -4l-2 -9l-3 -9v-7l-1 -6v-6l-6 -8l-4 -9l-3 -8
l-2 -7l-2 -7l-2 -6v-6v-6v-5l1 -4l2 -7l1 -6l-3 -3l-9 -6l-12 -11l-7 -7l-7 -6l-5 -5l-4 -5l-9 -9l-8 -10l-7 -8l-8 -11l-7 -11l-7 -12l-7 -11l-5 -11l-5 -11l-4 -10l-4 -11l-3 -11l-3 -11l-3 -10l-2 -10l-1 -9l-2 -10l-1 -18v-17v-7l1 -7l2 -13l1 -6l2 -5l2 -6l1 -3l3 -7
l2 -2l2 -3h1h1h1h7l7 2l7 3l6 4l6 4l5 5l6 5l5 6l5 6l4 6l4 4l2 6l5 8l2 4l1 2v3l1 2h1l2 1h1v-1h1h1l3 -12l2 -10l4 -10l4 -9l4 -9l5 -8l4 -9l4 -7l5 -7l3 -6l10 -12l9 -11l8 -8l8 -7l7 -6l11 -10l4 -2l2 -2v-1l-1 -1h-1h-2l-8 -1l-7 -1l-6 -1l-7 -1l-5 -2l-6 -2l-5 -2
l-4 -3l-5 -1l-3 -3l-3 -2l-4 -3l-4 -5l-2 -3l-2 -2l-3 -6l-2 -5l-1 -5l-1 -4v-6v-3l-1 -4v-4l-1 -4v-3l1 -4l1 -4l2 -7l2 -3l2 -3l2 -3l3 -3l3 -3l2 -3l7 -5l8 -4l8 -5l9 -3l9 -4l11 -2l10 -4l11 -2l12 -2l11 -2l12 -1l24 -3h24h23h10h10h11l9 1l9 1l8 1l13 2l9 3l9 2l17 7
l8 3l7 3l12 7l10 6l8 5l6 5l9 -1l7 -1l14 -1h6h6l4 -1l4 -1l7 -3l8 -2l14 -5l15 -5l14 -4l14 -3l15 -4l15 -2l15 -2l14 -2l14 -1l15 -1h13h14h13l13 1l13 1l12 2l11 3l11 2l11 3l5 1l5 2l9 3l8 4l8 4l8 4l6 5l3 3l3 4l4 4l4 6l1 3l1 3l2 3l1 3v4l1 3l-1 5l-1 4l-2 5l-1 4
l-3 5l-3 5l-3 3l-4 4l-9 7l-10 8l-10 5l-10 6l-23 12l-6 3l-2 2l-1 1l12 11l5 6l4 5l8 12l7 11l6 11l6 10l8 20l7 16l4 12l2 4l2 3l2 2h1h1l6 -12l5 -12l4 -7l4 -5l4 -7l5 -7l4 -5l3 -2l2 -3l2 -1l3 -2l4 -2l3 -1h2h2l2 1l4 1l3 2l3 2l3 3l3 4l2 3l3 5l2 3l2 6l2 4l3 11
l2 12l2 14l1 8v6v7v9z" />
    <glyph glyph-name="uniE646" unicode="&#xe646;" 
d="M301 666q23 0 39 -16t16 -39v-93q0 -23 -16 -39t-39 -16h-93q-23 0 -39 16t-16 39v93q0 23 16 39t39 16h93zM560 666q23 0 39 -16t16 -39v-93q0 -23 -16 -39t-39 -16h-95q-23 0 -39 16t-16 39v93q0 23 16 39t39 16h95zM816 666q23 0 39 -16t16 -39v-93q0 -23 -16 -39
t-39 -16h-95q-23 0 -39 16t-16 39v93q0 23 16 39t39 16h95zM301 409q23 0 39 -16t16 -39v-93q0 -23 -16 -39t-39 -16h-93q-23 0 -39 16t-16 39v93q0 23 16 39t39 16h93zM560 409q23 0 39 -16t16 -39v-93q0 -23 -16 -39t-39 -16h-95q-23 0 -39 16t-16 39v93q0 23 16 39t39 16
h95zM816 409q23 0 39 -16t16 -39v-93q0 -23 -16 -39t-39 -16h-95q-23 0 -39 16t-16 39v93q0 23 16 39t39 16h95zM301 152q23 0 39 -16t16 -39v-94q0 -22 -16 -38t-39 -16h-93q-23 0 -39 16t-16 38v94q0 23 16 39t39 16h93zM560 152q23 0 39 -16t16 -39v-94q0 -22 -16 -38
t-39 -16h-95q-23 0 -39 16t-16 38v94q0 23 16 39t39 16h95zM816 152q23 0 39 -16t16 -39v-94q0 -22 -16 -38t-39 -16h-95q-23 0 -39 16t-16 38v94q0 23 16 39t39 16h95z" />
    <glyph glyph-name="uniE647" unicode="&#xe647;" 
d="M898 -68h-772q-26 0 -44 18t-18 44v490q0 25 18 43t44 18h187q-2 4 -2 46q0 32 22.5 54.5t54.5 22.5h248q32 0 54.5 -22.5t22.5 -54.5l2 -46h183q26 0 44 -18t18 -43v-490q0 -26 -18 -44t-44 -18zM513.5 56q76.5 0 131 53.5t54.5 130t-54.5 130t-131 53.5t-131 -53.5
t-54.5 -130t54.5 -130t131 -53.5z" />
    <glyph glyph-name="uniE648" unicode="&#xe648;" horiz-adv-x="1025" 
d="M512 812q-104 0 -199 -40.5t-163.5 -109t-109 -163.5t-40.5 -199t40.5 -199t109 -163.5t163.5 -109t199 -40.5t199 40.5t163.5 109t109 163.5t40.5 199t-40.5 199t-109 163.5t-163.5 109t-199 40.5zM512 -190q-100 0 -190.5 39t-156 104.5t-104.5 156t-39 190.5t39 190.5
t104.5 156t156 104.5t190.5 39t190.5 -39t156 -104.5t104.5 -156t39 -190.5t-39 -190.5t-104.5 -156t-156 -104.5t-190.5 -39zM712 318l-249 192q-9 9 -20 4q-14 -2 -14 -18v-380q0 -3 1 -6q1 -8 7 -13t14 -4.5t13 5.5l247 190l2 2q12 14 -1 28z" />
    <glyph glyph-name="uniE649" unicode="&#xe649;" 
d="M590 213q0 36 19.5 86t43.5 91t43.5 84.5t19.5 67.5q0 59 -42.5 101.5t-102 42.5t-101.5 -42.5t-42 -101.5q0 -26 19.5 -70t43 -84t43 -89.5t19.5 -85.5h37zM509 542q0 26 18.5 44.5t44.5 18.5t44.5 -18.5t18.5 -44.5t-18.5 -45t-44.5 -19t-44.5 19t-18.5 45zM747 612
q12 -29 13 -60l81 40v-554l-122 -61l-35 15q-30 165 -172 165q-5 0 -16 -4.5t-18.5 -4.5t-25.5 7q-16 10 -28.5 30t-19 37.5t-25 31.5t-47.5 16q-58 58 -149 61v267l126 -54q11 -5 23 -5q15 0 27 7l25 12q3 43 25 80l-77 -39l-209 90v-359v-329l209 -90l180 90l179 -77
l30 -13l180 90v688z" />
    <glyph glyph-name="uniE64A" unicode="&#xe64a;" 
d="M905 354v-25h-131v25h131zM548 686h25v-131h-25v131zM778 577l18 -17l-93 -93l-18 17zM198 103q-14 -14 -14 -34.5t14 -34.5l58 -58q15 -15 35.5 -15t34.5 15l242 241l-128 128zM669 388l-58 58q-15 15 -35 15t-35 -15l-84 -83l128 -128l84 83q14 15 14 35.5t-14 34.5z
M515.5 -218q-251.5 0 -378.5 127t-127 378.5t127 378.5t378.5 127t378.5 -127t127 -378.5t-127 -378.5t-378.5 -127zM515.5 768q-241.5 0 -361.5 -119.5t-120 -361t120 -361t361.5 -119.5t361 119.5t119.5 361t-119.5 361t-361 119.5z" />
    <glyph glyph-name="uniE64B" unicode="&#xe64b;" 
d="M991 417q-13 0 -22.5 -10t-9.5 -23q0 -152 -91.5 -271t-234.5 -159q152 152 152 433q0 82 -13.5 153.5t-34 120.5t-49 91t-52.5 65.5t-50 42.5t-36.5 24.5t-17.5 8.5l-8 2l-8 1h-4q-104 0 -199 -40.5t-163.5 -109t-109 -163.5t-40.5 -199t40.5 -199t109 -163.5
t163.5 -109t199 -40.5t199 40.5t163.5 109t109 163.5t40.5 199q0 13 -9.5 23t-23.5 10zM382 812q-78 -83 -114 -204h-142q42 73 108.5 126t147.5 78zM108 576q3 -1 5 -1h146q-20 -83 -21 -182h-173q2 97 43 183zM117 175q-46 87 -51 185h172q3 -99 27 -183h-141q-4 0 -7 -2z
M135 144h140q39 -114 115 -190q-79 22 -145 71.5t-110 118.5zM480 -37q-89 62 -136 181h136v-181zM480 177h-147q-26 82 -29 184h176v-184zM480 393h-177q1 100 23 182h154v-182zM480 608h-144q46 135 144 204v-204zM545 810q97 -69 142 -202h-142v202zM545 575h152
q23 -83 23 -182h-175v182zM545 361h175q-3 -102 -29 -184h-146v184zM545 -36v180h134q-46 -117 -134 -180zM939 501q0 -17 12 -29t29 -12t29 12t12 29t-12 29t-29 12t-29 -12t-12 -29zM939 575q15 0 25 10.5t10 25t-10 24.5t-24.5 10t-25 -10.5t-10.5 -24.5t10.5 -24.5
t24.5 -10.5zM872 681q11 0 18.5 7.5t7.5 18.5t-7.5 18.5t-18 7.5t-18 -7.5t-7.5 -18.5t7.5 -18.5t17.5 -7.5zM872 681z" />
    <glyph glyph-name="uniE64D" unicode="&#xe64d;" 
d="M523 866l-11 13l-11 -13q-4 -5 -13 -14t-40 -29.5t-69.5 -37t-103.5 -29.5t-139 -13h-14v-14v-271q0 -82 32.5 -170t81 -158t102.5 -127t101 -88.5t72 -31.5h2q26 0 72.5 31.5t100.5 88.5t102.5 127t81 158t32.5 170v271v14h-14q-74 0 -139 13t-103.5 29.5t-69.5 37
t-40 29.5t-13 14zM846 458q0 -76 -31 -156.5t-76 -142.5t-93.5 -113.5t-85 -79t-48.5 -28.5q-12 1 -48.5 28.5t-85 79t-93.5 113.5t-76 142.5t-31 156.5v230q68 1 128.5 14t101.5 32.5t64.5 34t39.5 28.5q16 -14 39.5 -28.5t64.5 -34t101.5 -32.5t128.5 -14v-230zM513 717
q-116 -79 -282 -92v-183q0 -29 7 -65h275v340zM513 -21l2 -2q27 18 65 55t82 89t80.5 121.5t49.5 134.5h-279v-398z" />
    <glyph glyph-name="uniE64E" unicode="&#xe64e;" 
d="M949 57q0 -19 -6.5 -34.5t-18 -27.5t-27 -19t-33.5 -7h-697q-18 0 -34.5 7t-29 19t-19.5 27.5t-7 34.5v479q0 36 25.5 61.5t61.5 25.5h697q37 0 62.5 -25.5t25.5 -61.5v-131h-218q-37 0 -62.5 -25t-25.5 -61q1 -25 11 -44q8 -17 25.5 -30.5t51.5 -13.5h218v-174zM818 667
h-436q52 27 98 52q40 21 79.5 42t61.5 33q34 18 60.5 16.5t44.5 -8.5q21 -11 36 -28zM687 318.5q0 18.5 12.5 31t31 12.5t31 -12.5t12.5 -31t-12.5 -31t-31 -12.5t-31 12.5t-12.5 31z" />
    <glyph glyph-name="uniE64F" unicode="&#xe64f;" 
d="M925 187h-790q-27 0 -46 19t-19 46v501q0 27 19 46t46 19h790q27 0 46 -19t19 -46v-501q0 -27 -19 -46t-46 -19zM135 798q-18 0 -31 -13t-13 -32v-501q0 -19 13 -32t31 -13h790q19 0 31.5 13t12.5 32v501q0 19 -12.5 32t-31.5 13h-790zM403 647zM336 375l-111 130
l114 124l30 -27l-89 -98l87 -102zM726 368l-30 27l90 98l-87 102l31 27l110 -130zM704 -84q0 -11 -8.5 -19t-20.5 -8h-244q-12 0 -20.5 8t-8.5 19v9q0 11 8.5 19t20.5 8h244q12 0 20.5 -8t8.5 -19v-9zM651 602q6 -6 4 -16t-10 -19l-172 -172q-9 -8 -19 -10t-16 4l-5 4
q-6 6 -4 16.5t11 18.5l172 172q8 9 18.5 11t16.5 -4z" />
    <glyph glyph-name="uniE650" unicode="&#xe650;" 
d="M836 19q35 0 55.5 27.5t20.5 63.5v545q0 35 -20.5 62.5t-55.5 27.5h-651q-36 0 -56 -20t-20 -55v-560q0 -36 20.5 -63.5t55.5 -27.5h651zM836 -26h-651q-53 0 -87 39.5t-34 96.5v560q0 54 33.5 87.5t87.5 33.5h651q53 0 87 -40t34 -96v-545q0 -57 -34 -96.5t-87 -39.5v0z
M908 82q4 -9 0 -17.5t-12.5 -12t-17 0t-12.5 11.5q-32 77 -86 136.5t-93 59.5q-28 0 -55 -11.5t-41 -22.5l-13 -11l-32 33q9 8 22.5 18t48.5 24.5t70 14.5q42 0 87.5 -37.5t79 -86.5t54.5 -99zM551 251l27 -36q-1 -2 -16 -12q-45 -31 -69 -32l-2 45q11 1 45 25q14 9 15 10z
M503 203l-45 -6l45 9v-3zM503 203l-45 -4q0 3 -1 11q-5 146 -66 185q-9 6 -29 0q-49 -15 -138 -158q-41 -67 -69 -186l-44 10q29 127 75 200q97 158 162 177q41 13 68 -5q80 -51 87 -221v-9zM578 215l-32 33l32 -33l-27 36l27 -36v0v0v0zM491 171q-9 0 -17 3q-14 8 -16 23v2
l19 2l-19 -4l34 5l1 -31h-2v0zM477 201l14 3v12q2 0 5 -1q5 -3 7 -9v-2v-1v0h-6l-5 -1l-15 -1v0zM155 50l-44 11l44 -11v0v0v0v0zM155 50v0v0zM155 50h-1h1v0zM154 50v0v0zM154 50v0v0zM154 50v0v0zM154 50l-8 4q-6 3 -9 4l17 -8v0zM137 58v0v0zM137 58v0v0zM137 58l-1 1v-1
h1v0zM136 59v0v0zM136 59h-2h2v0zM134 59l-20 10q3 -1 10 -4.5t10 -5.5v0zM114 69l-9 4q3 -1 9 -4v0zM730 473q19 0 32 13.5t13 32t-13 32t-32 13.5t-32.5 -13.5t-13.5 -32t13.5 -32t32.5 -13.5zM730 427q-38 0 -64.5 27t-26.5 64.5t26.5 64t64 26.5t64.5 -26.5t27 -64
t-27 -64.5t-64 -27v0z" />
    <glyph glyph-name="uniE651" unicode="&#xe651;" 
d="M999 296q-14 58 -69 87q-8 4 -22.5 11t-19.5 9q-4 2 -19 12l-5 3q45 6 81 34q-4 -2 -5 -3q-38 -18 -61 -21q-3 -1 -8.5 -1.5t-7.5 -0.5q-6 -1 -9 6q-10 20 -2 47q2 6 7 19q23 57 5 109t-71 84q-26 16 -55 25q-31 10 -52 36q-14 17 -32 44q-56 79 -153 95q-1 1 -26 4h-39
l-4 -1q-55 -4 -107 -25q-64 -25 -102 -66q-27 -28 -34 -60q-4 -20 1 -40q5 16 5 17q22 60 85 92q54 28 123 28q50 1 91 -13q42 -15 84 -55q9 -9 59 -57v-1q-34 16 -36 17q-45 18 -83 45q-67 47 -148 42q-31 -2 -87 -15q-7 -2 -13.5 -5t-15.5 -9t-12 -7l3 -7q12 -21 37 -36
q51 -32 127 -40q15 -2 43.5 -3.5t41.5 -3.5q63 -6 110 -23q41 -15 63 -39q1 0 11 -13q-5 2 -12.5 6t-10.5 5q-40 18 -110 29q-12 2 -42 6.5t-46 6.5l-43 8q-27 6 -40 8q-50 9 -69 16q-52 18 -69 64l-1 2q-12 -17 -13 -19q-6 -6 -5 -16q4 -33 33 -60q26 -24 66 -40
q64 -26 119 -26q34 0 57 -1q53 -2 89 -13q84 -23 109 -101q3 -10 14 -60q10 -40 13 -46q17 -34 55 -56q1 -1 19 -10q-35 7 -57 30q-22 24 -34 61q-2 6 -10 30.5t-13 37.5q-32 81 -112 98q-25 5 -84 9q-70 5 -85 8q-121 19 -189 124l-2 3v-5q6 -28 28 -52q48 -52 117 -72
q44 -12 116 -16q59 -3 93 -9q72 -13 106 -75l2 -4q-1 0 -2 1q-34 48 -89 62q-35 10 -103 11h-38h-38q-34 1 -54 13q-45 25 -68 41q-53 37 -75 93l-2 2q-1 -25 -1 -27q4 -28 26 -57q30 -39 86 -70q7 -4 8 -4q22 -19 64 -40q9 -4 12 -8q21 -21 26 -29q38 -59 27 -130
q-6 -36 -3 -61q5 -40 36 -58q5 -2 4 -7q-4 -48 25 -77q35 -36 85 -36q33 -1 52 18t19 51q-1 15 -14 27t-27 11q-8 0 -12.5 -5.5t-2.5 -12.5q1 2 1 3q4 7 9 7q6 0 9 -8q4 -13 0 -24q-13 -28 -47 -33q-28 -4 -45 24q-12 19 -12 50q0 6 6 7q16 4 32 16q-22 -9 -38 -9q8 40 9 42
q3 14 11 39.5t12 36.5q23 79 -33 134l-9 9q2 0 3 -1q28 -13 37 -17q3 -2 4 -6q2 -8 4.5 -22.5t4.5 -22.5q15 -69 40 -117q32 -59 71 -83q29 -19 52 -31q12 -6 36.5 -18t37.5 -19q19 -11 28 -30t6 -41q-6 -41 -39 -70q-24 -22 -99 -87q-4 -3 -3 -8q7 -27 33 -38q1 0 21 -6h21
q29 8 33 9l10 5q-10 4 -11 4q-30 13 -19 43q6 18 28 46q24 30 34 43q5 6 12 21q2 4 7 4q55 0 89 40q14 17 19 50q0 1 2 35q0 3 1 5q23 28 27 66l1 3v25q-4 22 -5 24zM517 390q0 -30 -8 -61q-2 -8 -25 -94q-13 5 -19.5 18t-10.5 36q-4 27 3 68q7 47 -4 83q-8 29 -29 50l-3 3
l-1 2q46 -22 65 -39q31 -26 32 -66zM669 690q-1 1 -2 3q32 -17 34 -18q56 -39 83 -102q8 -17 7 -37q-1 -7 -3 -79q-17 16 -22 35q-6 22 -10 50q-8 48 -22 70q-31 47 -65 78zM578 441l-3 15l6 -4q35 -31 55 -84q21 -57 54 -91q1 -1 21 -20q-116 71 -133 184zM705 370
q-1 4 -21 70h1l1 1q12 -37 14 -40q7 -20 15 -34q25 -49 78 -60q32 -7 63 -16q25 -8 44 -27q-27 6 -29 7q-7 1 -27 3.5t-30 4.5q-83 16 -109 91zM895 281q13 -9 19 -23q-13 16 -19 23zM864 55l1 6q18 53 -13 104q-9 15 -27 26q-11 6 -32 17.5t-31 16.5q-2 1 -32 19l1 1
q26 -15 67 -24q3 -1 22 -5t29 -7q36 -9 54 -31q11 -13 16 -28q1 -4 -3 -6q-13 -6 -23 -13l28 8q5 -24 -13 -50.5t-44 -33.5zM971 199q0 -1 -1 -2q-19 30 -22 33q-2 3 -4.5 6t-6 6t-4.5 5q-3 3 -3 5q-3 41 -43 71q-28 21 -68 34q-23 7 -39 27q-19 24 -39 67q0 1 -9 24v1h1
l1 -2q20 -29 53 -44q4 -2 5 -5q13 -51 65 -78q5 -3 48 -19q4 -2 14 -5t15 -5q38 -16 46 -61q6 -29 -9 -58zM114 385q4 1 15 4.5t18 6.5q27 9 35 41q4 15 1 33q-5 26 -22 58q-24 43 -10 96q6 22 26 62l5 11q-2 0 -3 -1q-26 -35 -37 -64q-14 -36 -8 -69q4 -18 20 -52
q12 -24 14 -35q10 -41 -27 -58q-4 -2 -22 -9l-30 -13q-19 -9 -23 -29l-1 -2v-23l4 -20q1 2 1 6q1 22 11 35q9 14 33 22zM619 48q-12 11 -17 14q-107 62 -221 20q-6 -2 -11 1q-1 1 -17 13q-58 43 -67 49q-5 4 -21 10q-7 3 -12 -3q-33 -40 -19 -88q6 -19 10 -45q0 -2 -1 -23
q9 2 10 2q20 4 23 3q67 -5 123 -22q60 -18 95 -47l32 -32q16 21 17 22q56 72 59 77q5 6 20 31q5 10 -3 18zM284 331q10 -3 28 -9t26 -8q4 -2 8 1q25 13 36 42l1 4h2q-2 -33 -3 -51q23 2 29 22q6 18 1 59q-27 -20 -29 -22q-25 -18 -47 -22q-10 -2 -18 4t-8 17q0 14 -13 17
q-10 3 -9 14v6l-2 1q-14 5 -13 20q1 5 1 6q0 8 -7 9q-3 1 -17 7q-5 3 -4 9q1 5 2.5 15.5t2.5 16.5q7 29 -8 55q-10 18 -23 53q-22 54 -29 88l-2 8q-22 -40 -29 -62q-6 -16 -7 -28q-6 -40 12 -78q6 -12 17.5 -33.5t15.5 -28.5q9 -17 12 -29q6 -21 -14 -31q-7 -4 -26 -10
q-4 -1 -18.5 -5t-21.5 -7q-49 -20 -47 -73q1 -16 14 -58q9 -31 12 -44q3 -24 -23 -30l-12 -2q15 -12 39 -5t31 30q6 16 3 31q-2 8 -5.5 23t-4.5 21q-6 32 21 46q4 2 46 19q1 0 4 1q-28 -17 -29 -18q-40 -28 -31 -76q2 -8 6 -22.5t5 -18.5q9 -35 -23 -54l-8 -4h34q1 10 1 11
q5 99 6 112q1 27 18 47q14 18 37 21q25 4 60 -7zM277 376q-2 -7 -13.5 -15t-22.5 -9q16 11 36 24z" />
  </font>
</defs>
</svg>
