<svg width="12" height="12" viewBox="0 0 12 12" fill="none" xmlns="http://www.w3.org/2000/svg">
<g clip-path="url(#clip0_87_3987)">
<path d="M0.463778 5.88294C0.463778 5.20514 1.01325 4.65567 1.69105 4.65567H2.90977V11.2399H1.69105C1.01325 11.2399 0.463778 10.6905 0.463778 10.0126V5.88294Z" stroke="#7A7D7A" stroke-width="0.818182"/>
<mask id="path-2-inside-1_87_3987" fill="white">
<path fill-rule="evenodd" clip-rule="evenodd" d="M6.56603 0.54541C5.96577 0.54541 5.45655 0.966782 5.27583 1.53919C4.91998 2.66633 4.35853 3.71258 3.4414 4.24667H2.45508V11.6491H6.29075H9.07955C9.71455 11.6491 10.2904 11.2711 10.5318 10.6838C11.4095 8.54824 11.8305 7.16877 11.9802 5.80229C12.0744 4.94248 11.3512 4.24667 10.4862 4.24667H7.84339L7.84339 3.25455L7.84339 1.82265C7.84339 1.11719 7.2715 0.54541 6.56603 0.54541Z"/>
</mask>
<path d="M5.27583 1.53919L4.49561 1.29287V1.29287L5.27583 1.53919ZM3.4414 4.24667V5.06485C3.58606 5.06485 3.72814 5.0265 3.85315 4.9537L3.4414 4.24667ZM2.45508 4.24667V3.42849C2.00321 3.42849 1.6369 3.7948 1.6369 4.24667H2.45508ZM2.45508 11.6491H1.6369C1.6369 12.101 2.00321 12.4673 2.45508 12.4673V11.6491ZM10.5318 10.6838L11.2885 10.9948V10.9948L10.5318 10.6838ZM11.9802 5.80229L12.7935 5.8914V5.8914L11.9802 5.80229ZM7.84339 4.24667L7.02521 4.24667C7.02521 4.46366 7.11141 4.67177 7.26485 4.82521C7.41829 4.97865 7.6264 5.06485 7.84339 5.06485V4.24667ZM7.84339 3.25455L8.66158 3.25455V3.25455L7.84339 3.25455ZM7.84339 1.82265L8.66157 1.82265V1.82265L7.84339 1.82265ZM6.05605 1.78552C6.14343 1.50875 6.36757 1.36359 6.56603 1.36359V-0.272772C5.56397 -0.272772 4.76967 0.424811 4.49561 1.29287L6.05605 1.78552ZM3.85315 4.9537C5.03877 4.26325 5.68155 2.97173 6.05605 1.78552L4.49561 1.29287C4.15841 2.36093 3.67829 3.16191 3.02966 3.53964L3.85315 4.9537ZM2.45508 5.06485H3.4414V3.42849H2.45508V5.06485ZM3.27326 11.6491V4.24667H1.6369V11.6491H3.27326ZM6.29075 10.8309H2.45508V12.4673H6.29075V10.8309ZM9.07955 10.8309H6.29075V12.4673H9.07955V10.8309ZM9.77503 10.3727C9.66244 10.6467 9.38993 10.8309 9.07955 10.8309V12.4673C10.0392 12.4673 10.9184 11.8955 11.2885 10.9948L9.77503 10.3727ZM11.1669 5.71319C11.0297 6.96533 10.643 8.26087 9.77503 10.3727L11.2885 10.9948C12.176 8.83562 12.6312 7.37221 12.7935 5.8914L11.1669 5.71319ZM10.4862 5.06485C10.9423 5.06485 11.1998 5.41217 11.1669 5.71319L12.7935 5.8914C12.9489 4.4728 11.7601 3.42849 10.4862 3.42849V5.06485ZM7.84339 5.06485H10.4862V3.42849H7.84339V5.06485ZM7.02521 3.25455L7.02521 4.24667L8.66157 4.24667L8.66158 3.25455L7.02521 3.25455ZM7.02521 1.82265L7.02521 3.25455L8.66158 3.25455L8.66157 1.82265L7.02521 1.82265ZM6.56603 1.36359C6.81973 1.36359 7.02521 1.56915 7.02521 1.82265L8.66157 1.82265C8.66157 0.66522 7.72327 -0.272772 6.56603 -0.272772V1.36359Z" fill="#7A7D7A" mask="url(#path-2-inside-1_87_3987)"/>
</g>
<defs>
<clipPath id="clip0_87_3987">
<rect width="12" height="12" fill="white"/>
</clipPath>
</defs>
</svg>
