<svg width="12" height="12" viewBox="0 0 12 12" fill="none" xmlns="http://www.w3.org/2000/svg">
<path fill-rule="evenodd" clip-rule="evenodd" d="M6 10.125C8.27817 10.125 10.125 8.27817 10.125 6C10.125 3.72183 8.27817 1.875 6 1.875C3.72183 1.875 1.875 3.72183 1.875 6C1.875 8.27817 3.72183 10.125 6 10.125ZM11.25 6C11.25 8.8995 8.8995 11.25 6 11.25C3.10051 11.25 0.75 8.8995 0.75 6C0.75 3.10051 3.10051 0.75 6 0.75C8.8995 0.75 11.25 3.10051 11.25 6Z" fill="#CFD1D0"/>
<path d="M6.10651 3C5.28503 3 4.70378 3.41028 4.23365 3.99173L4.125 4.1261L4.76932 4.8218L4.91912 4.63808C5.28709 4.18679 5.66022 3.99515 6.03882 3.99515C6.34436 3.99515 6.54457 4.08169 6.66806 4.20217C6.79183 4.32292 6.86299 4.50157 6.86299 4.73296C6.86299 4.89396 6.79313 5.04127 6.66149 5.20331C6.56153 5.32635 6.44071 5.4414 6.30561 5.57005C6.25585 5.61744 6.20415 5.66667 6.15085 5.71882C5.77015 6.09129 5.35632 6.57144 5.47777 7.32983L5.50502 7.5H6.47337L6.43758 7.26817C6.36387 6.79064 6.63689 6.50159 7.02545 6.1369L7.07551 6.09005C7.43511 5.75405 7.875 5.34301 7.875 4.6777C7.875 4.17801 7.70615 3.75304 7.38779 3.45351C7.07048 3.15496 6.62494 3 6.10651 3Z" fill="#CFD1D0"/>
<circle cx="6" cy="8.47461" r="0.5625" fill="#C4C4C4"/>
</svg>
