<svg width="18" height="18" viewBox="0 0 18 18" fill="none" xmlns="http://www.w3.org/2000/svg">
<g clip-path="url(#clip0_87_3959)">
<path fill-rule="evenodd" clip-rule="evenodd" d="M8.8018 1.75C5.76035 1.75 3.15459 3.62306 2.07852 6.28141C1.9231 6.66536 1.48585 6.85062 1.1019 6.6952C0.717953 6.53978 0.532692 6.10254 0.688111 5.71859C1.98559 2.51328 5.12848 0.25 8.8018 0.25C12.9669 0.25 16.4507 3.1595 17.335 7.05626C17.401 7.34731 17.2882 7.64982 17.0477 7.82657C16.8072 8.00331 16.4848 8.02064 16.2268 7.8707L14.1232 6.64848C13.7651 6.44039 13.6435 5.98136 13.8516 5.62321C14.0596 5.26506 14.5187 5.14342 14.8768 5.35152L15.1624 5.51744C13.9302 3.27199 11.5432 1.75 8.8018 1.75ZM0.562618 10.1685C0.80751 9.99271 1.13388 9.98061 1.39112 10.1378L3.39112 11.36C3.74456 11.576 3.85599 12.0376 3.64 12.3911C3.424 12.7445 2.96239 12.856 2.60895 12.64L2.48761 12.5658C3.73266 14.7655 6.09442 16.25 8.8018 16.25C11.8432 16.25 14.449 14.3769 15.5251 11.7186C15.6805 11.3346 16.1177 11.1494 16.5017 11.3048C16.8856 11.4602 17.0709 11.8975 16.9155 12.2814C15.618 15.4867 12.4751 17.75 8.8018 17.75C4.63665 17.75 1.15285 14.8405 0.268628 10.9437C0.201915 10.6497 0.317725 10.3444 0.562618 10.1685Z" fill="#A7A8A7"/>
</g>
<defs>
<clipPath id="clip0_87_3959">
<rect width="18" height="18" rx="9" fill="white"/>
</clipPath>
</defs>
</svg>
